<?xml version="1.0" encoding="UTF-8"?>
<svg width="1629px" height="353px" viewBox="0 0 1629 353" version="1.1" xmlns="http://www.w3.org/2000/svg" xmlns:xlink="http://www.w3.org/1999/xlink">
    <!-- Generator: Sketch 3.6.1 (26313) - http://www.bohemiancoding.com/sketch -->
    <title>logo-full</title>
    <desc>Created with Sketch.</desc>
    <defs></defs>
    <g id="Page-1" stroke="none" stroke-width="1" fill="none" fill-rule="evenodd">
        <g id="logo_full-—-копия" fill="#E30016">
            <g id="Layer1000" transform="translate(454.000000, 306.000000)">
                <path d="M21.2188,1.2714 L33.6654,36.4729 L25.7696,36.4729 L22.6991,26.5486 L11.678,26.5486 L8.6622,36.4729 L0.7669,36.4729 L13.2135,1.2714 L21.2188,1.2714 Z M13.2682,21.4492 L21.1641,21.4492 L18.3676,12.2924 L17.3803,6.7543 L17.0515,6.7543 L16.0646,12.2924 L13.2682,21.4492 Z M41.4973,36.4729 L41.4973,1.2714 L56.5762,1.2714 C59.1716,1.2714 61.3463,1.39 63.1012,1.6278 C64.8555,1.865 66.254,2.3037 67.2956,2.9434 C68.3376,3.5831 69.0775,4.4881 69.5162,5.6575 C69.9549,6.8274 70.1743,8.3445 70.1743,10.2088 C70.1743,11.598 70.0828,12.749 69.9002,13.6633 C69.7172,14.577 69.4339,15.3537 69.0504,15.9934 C68.6664,16.633 68.1914,17.1725 67.6243,17.6112 C67.0578,18.0494 66.4089,18.4518 65.6782,18.8174 C66.4089,19.183 67.0762,19.5757 67.6795,19.996 C68.2824,20.4163 68.7942,20.9466 69.2146,21.5862 C69.6349,22.2259 69.9549,23.0118 70.1743,23.9439 C70.3936,24.8761 70.5031,26.0184 70.5031,27.3708 C70.5031,29.2351 70.2745,30.7614 69.8179,31.9492 C69.3608,33.1375 68.6025,34.0604 67.5425,34.7185 C66.482,35.3761 65.0749,35.8332 63.3205,36.0889 C61.5657,36.345 59.391,36.4729 56.7955,36.4729 L41.4973,36.4729 Z M56.905,30.6059 C58.0381,30.6059 59.007,30.5879 59.8113,30.5509 C60.6151,30.5139 61.2732,30.4047 61.785,30.2217 C62.2969,30.0391 62.6625,29.7282 62.8818,29.2895 C63.1012,28.8508 63.2106,28.2111 63.2106,27.3705 C63.2106,25.9449 63.1104,24.8482 62.9089,24.0807 C62.708,23.3132 62.3792,22.7558 61.9221,22.4081 C61.4654,22.0609 60.8805,21.86 60.1677,21.8053 C59.4549,21.7506 58.5867,21.723 57.563,21.723 L47.6388,21.723 L47.6388,30.6056 L56.905,30.6059 Z M57.563,15.8563 C58.5499,15.8563 59.391,15.8108 60.0854,15.7193 C60.7798,15.6278 61.3279,15.4084 61.7303,15.0612 C62.1322,14.714 62.4247,14.1751 62.6077,13.4439 C62.7903,12.7127 62.8818,11.6891 62.8818,10.3734 C62.8818,9.6054 62.7719,9.0118 62.5525,8.5915 C62.3332,8.1707 61.986,7.8511 61.511,7.6317 C61.0359,7.4124 60.3958,7.2753 59.592,7.2206 C58.7877,7.1654 57.8187,7.1383 56.6856,7.1383 L47.6388,7.1383 L47.6388,15.8563 L57.563,15.8563 Z M87.2729,36.4729 L87.2729,7.1383 L76.4712,7.1383 L77.0193,1.2714 L106.0251,1.2714 L105.4765,7.1383 L94.5107,7.1383 L94.5107,36.4729 L87.2729,36.4729 Z M128.5519,6.3708 C127.1627,6.3708 125.8466,6.4347 124.604,6.5625 C123.361,6.6904 122.2647,7.1475 121.3142,7.9334 C120.3636,8.7193 119.6145,9.9526 119.0659,11.6344 C118.5177,13.3161 118.2437,15.7101 118.2437,18.8174 C118.2437,21.9242 118.5177,24.3187 119.0659,26 C119.6145,27.6817 120.3636,28.9155 121.3142,29.7014 C122.2647,30.4873 123.361,30.9439 124.604,31.0718 C125.8466,31.2001 127.1627,31.264 128.5519,31.264 C129.9044,31.264 131.2021,31.2 132.4447,31.0718 C133.6877,30.9439 134.7844,30.4873 135.7345,29.7014 C136.685,28.9155 137.4433,27.6817 138.0104,26 C138.5769,24.3187 138.8602,21.9242 138.8602,18.8174 C138.8602,15.7101 138.5769,13.3161 138.0104,11.6344 C137.4433,9.9526 136.6758,8.7193 135.7074,7.9334 C134.7384,7.1475 133.6329,6.6904 132.3899,6.5625 C131.1469,6.4347 129.8676,6.3708 128.5519,6.3708 L128.5519,6.3708 Z M110.896,18.8174 C110.896,14.8695 111.3623,11.6983 112.2944,9.3042 C113.2266,6.9097 114.4875,5.0639 116.0777,3.7661 C117.6679,2.4684 119.5322,1.6094 121.6706,1.1891 C123.8089,0.7687 126.1027,0.5586 128.5519,0.5586 C131.0007,0.5586 133.2945,0.7687 135.4333,1.1891 C137.5717,1.6094 139.4359,2.4684 141.0257,3.7661 C142.6159,5.0639 143.8773,6.9097 144.8094,9.3042 C145.7416,11.6983 146.2074,14.8695 146.2074,18.8174 C146.2074,22.7653 145.7416,25.936 144.8094,28.3306 C143.8773,30.7246 142.6159,32.5709 141.0257,33.8682 C139.4359,35.1659 137.5717,36.025 135.4333,36.4453 C133.2945,36.8661 131.0007,37.0762 128.5519,37.0762 C126.1027,37.0762 123.8089,36.8661 121.6706,36.4453 C119.5322,36.025 117.6679,35.1659 116.0777,33.8682 C114.4875,32.5709 113.2266,30.7246 112.2944,28.3306 C111.3623,25.936 110.896,22.7653 110.896,18.8174 L110.896,18.8174 Z M158.9741,21.4492 L158.9741,16.1304 L167.8021,16.1304 C168.8252,16.1304 169.6935,16.0849 170.4062,15.9934 C171.119,15.9019 171.6948,15.6917 172.1335,15.3629 C172.5722,15.0341 172.8831,14.5494 173.0656,13.9097 C173.2487,13.2701 173.3397,12.3655 173.3397,11.1956 C173.3397,10.2088 173.2303,9.4137 173.0109,8.8103 C172.7916,8.2075 172.4444,7.7412 171.9689,7.4124 C171.4938,7.0836 170.8542,6.855 170.0499,6.7272 C169.2455,6.5989 168.2771,6.5349 167.144,6.5349 C166.0472,6.5349 164.8778,6.5989 163.6348,6.7272 C162.3918,6.855 161.204,7.0192 160.0709,7.2206 C158.9378,7.4216 157.9049,7.6317 156.9728,7.8511 C156.0406,8.0704 155.3186,8.2714 154.8068,8.4539 L152.9973,2.8064 C153.7652,2.4408 154.6882,2.1304 155.7666,1.8742 C156.8449,1.6186 158.0056,1.3992 159.2482,1.2167 C160.4912,1.0336 161.7797,0.8966 163.1138,0.8051 C164.4483,0.714 165.7547,0.668 167.0341,0.668 C169.6295,0.668 171.8047,0.8051 173.5591,1.0791 C175.3139,1.3537 176.7119,1.8287 177.7539,2.5052 C178.7955,3.1812 179.5359,4.1225 179.9746,5.3287 C180.4128,6.5349 180.6322,8.0704 180.6322,9.9347 C180.6322,11.3235 180.5135,12.4934 180.2758,13.4439 C180.0385,14.394 179.6913,15.1983 179.2342,15.8563 C178.7771,16.5144 178.2198,17.081 177.5617,17.556 C176.9041,18.0315 176.1729,18.4518 175.3686,18.8174 C176.1729,19.183 176.9128,19.5941 177.5893,20.0507 C178.2653,20.5078 178.8323,21.0652 179.2889,21.7233 C179.746,22.3813 180.1024,23.1948 180.3581,24.1633 C180.6143,25.1317 180.7421,26.2924 180.7421,27.6449 C180.7421,29.5092 180.5135,31.0539 180.0564,32.2785 C179.5998,33.5026 178.841,34.4715 177.781,35.1843 C176.7211,35.8971 175.3139,36.3905 173.5591,36.6646 C171.8047,36.9387 169.6295,37.0762 167.0341,37.0762 C165.7547,37.0762 164.4483,37.0302 163.1138,36.9387 C161.7797,36.8477 160.4912,36.7106 159.2482,36.5276 C158.0056,36.345 156.8449,36.1257 155.7666,35.8695 C154.6882,35.6138 153.7652,35.303 152.9973,34.9374 L154.8068,29.2898 C155.3186,29.4729 156.0406,29.6738 156.9728,29.8932 C157.9049,30.1125 158.9378,30.3227 160.0709,30.5236 C161.204,30.7246 162.3918,30.8892 163.6348,31.0171 C164.8778,31.1449 166.0472,31.2093 167.144,31.2093 C168.2771,31.2093 169.2455,31.1813 170.0499,31.1273 C170.8542,31.0723 171.5122,30.8895 172.0241,30.5786 C172.5359,30.2683 172.901,29.8019 173.1203,29.1807 C173.3397,28.5594 173.4496,27.682 173.4496,26.5489 C173.4496,25.3059 173.3489,24.3461 173.1479,23.6702 C172.947,22.9937 172.6177,22.4911 172.1611,22.1623 C171.704,21.8335 171.119,21.632 170.4062,21.5589 C169.6935,21.4858 168.8252,21.4495 167.8021,21.4495 L158.9741,21.4492 Z M221.8018,36.5276 C219.462,36.2719 217.7348,35.7417 216.6201,34.9374 C215.5054,34.1336 214.7466,32.8358 214.3447,31.0447 C213.2116,32.9821 211.7037,34.4623 209.821,35.486 C207.9383,36.5092 205.6813,37.021 203.0496,37.021 C200.9659,37.021 199.0556,36.8569 197.3197,36.5276 C195.5832,36.1988 194.0937,35.623 192.8507,34.8003 C191.6077,33.9781 190.6393,32.8629 189.9449,31.4558 C189.25,30.0486 188.9028,28.2846 188.9028,26.1646 C188.9028,23.7522 189.25,21.7601 189.9449,20.1883 C190.6393,18.616 191.6077,17.3642 192.8507,16.4321 C194.0937,15.4999 195.5832,14.8511 197.3197,14.4855 C199.0556,14.1199 200.9659,13.9373 203.0496,13.9373 L211.7129,13.9373 C211.603,12.1825 211.3928,10.8029 211.0819,9.7977 C210.7715,8.7924 210.3052,8.0428 209.684,7.5494 C209.0627,7.056 208.2492,6.7451 207.2439,6.6173 C206.2387,6.4894 204.987,6.4255 203.4878,6.4255 C202.3915,6.4255 201.3131,6.4986 200.2531,6.6449 C199.1927,6.7911 198.1966,6.9737 197.2645,7.193 C196.3323,7.4124 195.4825,7.6409 194.715,7.8782 C193.9475,8.1159 193.3078,8.3261 192.796,8.5091 L190.9864,2.8616 C192.5219,2.1304 194.3678,1.5638 196.5246,1.1615 C198.6813,0.7595 201.039,0.5586 203.5977,0.5586 C206.5588,0.5586 209.0351,0.7779 211.0272,1.2167 C213.0193,1.6549 214.6095,2.5139 215.7978,3.7937 C216.9857,5.0731 217.8355,6.9005 218.3473,9.2766 C218.8591,11.6528 219.1148,14.778 219.1148,18.6528 L219.1148,19.5302 L219.1148,25.6712 C219.1148,27.4623 219.371,28.7233 219.8823,29.4545 C220.3941,30.1856 221.2352,30.6423 222.4047,30.8253 L221.8018,36.5276 Z M211.7676,19.859 L203.0496,19.859 C201.9891,19.859 201.0298,19.9229 200.1708,20.0507 C199.3118,20.1791 198.5622,20.4623 197.9225,20.901 C197.2829,21.3393 196.7894,21.9702 196.4423,22.7924 C196.0951,23.6151 195.9212,24.739 195.9212,26.1646 C195.9212,27.2614 196.1043,28.1383 196.4699,28.7964 C196.835,29.4545 197.3289,29.9479 197.9501,30.2772 C198.5714,30.6059 199.321,30.8253 200.1979,30.9347 C201.0754,31.0447 202.0443,31.0994 203.1043,31.0994 C204.9686,31.0994 206.4672,30.8616 207.6003,30.3866 C208.7334,29.9116 209.6109,29.1988 210.2321,28.2482 C210.8539,27.2977 211.265,26.137 211.4659,24.7666 C211.6669,23.3958 211.7676,21.7964 211.7676,19.9689 L211.7676,19.859 Z M252.4433,36.4729 L252.4433,7.2477 L238.1871,7.2477 L238.1871,36.4729 L231.0041,36.4729 L231.0041,1.2714 L259.6264,1.2714 L259.6264,36.4729 L252.4433,36.4729 Z M287.0874,36.4729 L287.0874,22.6554 C286.2468,23.2767 285.2963,23.697 284.2363,23.9163 C283.1763,24.1357 281.9517,24.2456 280.5625,24.2456 C278.4793,24.2456 276.569,24.081 274.8331,23.7522 C273.0966,23.4229 271.6071,22.8472 270.3641,22.0249 C269.1211,21.2022 268.1526,20.0875 267.4583,18.6804 C266.7634,17.2727 266.4162,15.5092 266.4162,13.3887 L266.4162,1.2714 L273.8186,1.2714 L273.8186,13.5534 C273.8186,14.6501 273.974,15.5184 274.2844,16.158 C274.5953,16.7977 275.0519,17.2727 275.6553,17.5836 C276.2586,17.8945 276.9714,18.0954 277.7936,18.1865 C278.6163,18.278 279.5577,18.324 280.6177,18.324 C282.3357,18.324 283.7066,18.1593 284.7297,17.8301 C285.7534,17.5013 286.5393,16.8248 287.0874,15.8016 L287.0874,1.2714 L294.3252,1.2714 L294.3252,36.4729 L287.0874,36.4729 Z M336.2076,36.5279 C333.8678,36.2722 332.1406,35.742 331.0259,34.9377 C329.9112,34.1339 329.1524,32.8361 328.7505,31.045 C327.6174,32.9824 326.1095,34.4626 324.2268,35.4863 C322.3441,36.5095 320.0871,37.0213 317.4554,37.0213 C315.3717,37.0213 313.4614,36.8572 311.7255,36.5279 C309.989,36.1991 308.4996,35.6233 307.2565,34.8006 C306.0135,33.9784 305.0451,32.8632 304.3507,31.4561 C303.6558,30.0489 303.3086,28.2849 303.3086,26.1649 C303.3086,23.7525 303.6558,21.7604 304.3507,20.1886 C305.0451,18.6163 306.0135,17.3645 307.2565,16.4324 C308.4996,15.5002 309.989,14.8514 311.7255,14.4858 C313.4614,14.1202 315.3717,13.9376 317.4554,13.9376 L326.1187,13.9376 C326.0088,12.1828 325.7986,10.8032 325.4877,9.798 C325.1774,8.7927 324.711,8.0431 324.0898,7.5497 C323.4685,7.0563 322.655,6.7454 321.6498,6.6176 C320.6445,6.4897 319.3928,6.4258 317.8936,6.4258 C316.7973,6.4258 315.7189,6.4989 314.6589,6.6452 C313.5985,6.7914 312.6024,6.974 311.6703,7.1933 C310.7381,7.4127 309.8883,7.6412 309.1208,7.8785 C308.3533,8.1162 307.7137,8.3264 307.2018,8.5094 L305.3923,2.8619 C306.9277,2.1307 308.7736,1.5641 310.9304,1.1618 C313.0871,0.7598 315.4448,0.5589 318.0035,0.5589 C320.9646,0.5589 323.4409,0.7782 325.433,1.217 C327.4251,1.6552 329.0154,2.5142 330.2037,3.794 C331.3915,5.0734 332.2413,6.9008 332.7531,9.2769 C333.2649,11.6531 333.5206,14.7783 333.5206,18.6531 L333.5206,19.5305 L333.5206,25.6715 C333.5206,27.4626 333.7768,28.7236 334.2881,29.4548 C334.8,30.1859 335.6411,30.6426 336.8105,30.8256 L336.2076,36.5279 Z M326.1734,19.859 L317.4554,19.859 C316.3949,19.859 315.4356,19.9229 314.5766,20.0507 C313.7176,20.1791 312.968,20.4623 312.3283,20.901 C311.6887,21.3393 311.1953,21.9702 310.8481,22.7924 C310.5009,23.6151 310.327,24.739 310.327,26.1646 C310.327,27.2614 310.5101,28.1383 310.8757,28.7964 C311.2408,29.4545 311.7347,29.9479 312.356,30.2772 C312.9772,30.6059 313.7268,30.8253 314.6037,30.9347 C315.4812,31.0447 316.4501,31.0994 317.5101,31.0994 C319.3744,31.0994 320.873,30.8616 322.0061,30.3866 C323.1392,29.9116 324.0167,29.1988 324.6379,28.2482 C325.2597,27.2977 325.6708,26.137 325.8717,24.7666 C326.0727,23.3958 326.1734,21.7964 326.1734,19.9689 L326.1734,19.859 Z M374.7449,34.7732 C373.2095,35.5044 371.3181,36.0889 369.0698,36.5276 C366.8215,36.9663 364.4183,37.1856 361.8596,37.1856 C359.1542,37.1856 356.7147,36.9571 354.5395,36.5005 C352.3644,36.0434 350.5093,35.1567 348.9743,33.8411 C347.4388,32.5249 346.251,30.6699 345.4099,28.2758 C344.5693,25.8813 344.149,22.7469 344.149,18.8721 C344.149,14.9973 344.5693,11.8629 345.4099,9.4684 C346.251,7.0744 347.4388,5.2193 348.9743,3.9032 C350.5093,2.587 352.3644,1.7009 354.5395,1.2438 C356.7147,0.7871 359.1542,0.5586 361.8596,0.5586 C366.9769,0.5586 371.0895,1.2898 374.1963,2.7517 L372.3872,8.3992 C371.3268,8.0704 369.8833,7.6593 368.0553,7.1654 C366.2278,6.672 364.1989,6.4255 361.9691,6.4255 C360.4704,6.4255 359.0811,6.5349 357.8018,6.7543 C356.5225,6.9737 355.417,7.5039 354.4848,8.3445 C353.5527,9.1851 352.8215,10.4373 352.2913,12.1002 C351.7615,13.7635 351.4962,16.021 351.4962,18.8721 C351.4962,21.7601 351.7615,24.0354 352.2913,25.6988 C352.8215,27.3616 353.5527,28.6046 354.4848,29.4269 C355.417,30.2496 356.5225,30.7706 357.8018,30.9899 C359.0811,31.2093 360.4704,31.3187 361.9691,31.3187 C363.0658,31.3187 364.1626,31.2367 365.2589,31.0718 C366.3557,30.9076 367.3793,30.7154 368.3294,30.496 C369.2799,30.2772 370.1574,30.0394 370.9617,29.7832 C371.7655,29.5276 372.4236,29.3082 372.9354,29.1257 L374.7449,34.7732 Z M389.8146,36.4729 L389.8146,7.1383 L379.0129,7.1383 L379.5611,1.2714 L408.5669,1.2714 L408.0182,7.1383 L397.0524,7.1383 L397.0524,36.4729 L389.8146,36.4729 Z M414.6439,36.4729 L414.6439,1.2714 L421.6076,1.2714 L421.6076,24.4102 L435.8091,1.2714 L443.4856,1.2714 L443.4856,36.4729 L436.4672,36.4729 L436.4672,13.2246 L422.2657,36.4729 L414.6439,36.4729 Z M481.529,36.4729 L481.529,1.2714 L507.7384,1.2714 L507.1902,7.1383 L488.7668,7.1383 L488.7668,13.9373 L495.7305,13.9373 C498.3259,13.9373 500.5006,14.0744 502.2554,14.3485 C504.0098,14.6225 505.4175,15.1528 506.4774,15.9387 C507.5374,16.7246 508.2962,17.8577 508.7528,19.3379 C509.2099,20.8187 509.4385,22.7653 509.4385,25.1777 C509.4385,27.5902 509.2099,29.5368 508.7528,31.0171 C508.2962,32.4978 507.5374,33.6401 506.4774,34.4439 C505.4175,35.2482 504.0098,35.7877 502.2554,36.0618 C500.5006,36.3358 498.3259,36.4729 495.7305,36.4729 L481.529,36.4729 Z M502.0361,25.0131 C502.0361,23.7701 501.9266,22.8016 501.7073,22.1073 C501.4879,21.4124 501.1407,20.8918 500.6652,20.5446 C500.1902,20.197 499.5505,19.9868 498.7462,19.9137 C497.9419,19.8406 496.9735,19.8043 495.8404,19.8043 L488.7668,19.8043 L488.7668,30.6059 L495.8404,30.6059 C496.9735,30.6059 497.9419,30.5689 498.7462,30.496 C499.5505,30.423 500.1902,30.2128 500.6652,29.8656 C501.1407,29.5184 501.4879,28.9886 501.7073,28.2758 C501.9266,27.5626 502.0361,26.5849 502.0361,25.3419 L502.0361,25.0131 Z M523.8501,21.2298 C523.96,23.3866 524.2249,25.123 524.6452,26.4387 C525.0655,27.7548 525.696,28.7693 526.5371,29.4821 C527.3777,30.1948 528.4377,30.6791 529.717,30.9347 C530.9963,31.1909 532.5682,31.3187 534.4324,31.3187 C535.5292,31.3187 536.6531,31.218 537.8046,31.0171 C538.9561,30.8161 540.0529,30.5783 541.0945,30.3043 C542.1365,30.0302 543.0866,29.7469 543.9456,29.4545 C544.8046,29.162 545.4903,28.9242 546.0021,28.7417 L547.8112,34.3892 C547.0437,34.7548 546.1115,35.102 545.0148,35.4313 C543.9185,35.7601 542.7394,36.0526 541.4784,36.3082 C540.2175,36.5644 538.9106,36.7745 537.5581,36.9387 C536.2057,37.1033 534.8895,37.1856 533.6102,37.1856 C530.8685,37.1856 528.4377,36.9663 526.3177,36.5276 C524.1973,36.0889 522.4061,35.2206 520.9442,33.9234 C519.4819,32.6257 518.3672,30.8161 517.5992,28.4947 C516.8317,26.1738 516.4482,23.1125 516.4482,19.3108 C516.4482,15.3629 516.8593,12.1646 517.6815,9.7154 C518.5042,7.2661 519.6557,5.3655 521.136,4.0126 C522.6163,2.6601 524.3711,1.7464 526.4,1.2714 C528.4285,0.7959 530.6676,0.5586 533.1168,0.5586 C535.7486,0.5586 538.0787,0.8143 540.1076,1.3261 C542.1365,1.8379 543.8454,2.7609 545.2341,4.0949 C546.6234,5.4294 547.6834,7.2477 548.4145,9.5507 C549.1457,11.8537 549.5113,14.8148 549.5113,18.4334 L549.5113,21.2298 L523.8501,21.2298 Z M542.0542,15.3082 C541.9443,13.4071 541.6886,11.8721 541.2867,10.7022 C540.8843,9.5323 540.3177,8.6278 539.5866,7.9881 C538.8559,7.3484 537.96,6.9189 536.9001,6.6996 C535.8401,6.4802 534.5787,6.3708 533.1168,6.3708 C531.8375,6.3708 530.6584,6.4347 529.58,6.5625 C528.5016,6.6904 527.5511,7.0468 526.7288,7.6317 C525.9061,8.2167 525.2486,9.112 524.7551,10.3182 C524.2612,11.5249 523.96,13.1878 523.8501,15.3082 L542.0542,15.3082 Z M561.5105,21.4492 L561.5105,16.1304 L570.3385,16.1304 C571.3617,16.1304 572.2299,16.0849 572.9427,15.9934 C573.6554,15.9019 574.2312,15.6917 574.6699,15.3629 C575.1086,15.0341 575.4195,14.5494 575.602,13.9097 C575.7851,13.2701 575.8761,12.3655 575.8761,11.1956 C575.8761,10.2088 575.7667,9.4137 575.5473,8.8103 C575.328,8.2075 574.9808,7.7412 574.5053,7.4124 C574.0302,7.0836 573.3906,6.855 572.5863,6.7272 C571.782,6.5989 570.8135,6.5349 569.6804,6.5349 C568.5836,6.5349 567.4142,6.5989 566.1712,6.7272 C564.9282,6.855 563.7404,7.0192 562.6073,7.2206 C561.4742,7.4216 560.4413,7.6317 559.5092,7.8511 C558.577,8.0704 557.8551,8.2714 557.3432,8.4539 L555.5337,2.8064 C556.3017,2.4408 557.2246,2.1304 558.303,1.8742 C559.3813,1.6186 560.542,1.3992 561.7846,1.2167 C563.0276,1.0336 564.3161,0.8966 565.6502,0.8051 C566.9847,0.714 568.2912,0.668 569.5705,0.668 C572.166,0.668 574.3411,0.8051 576.0955,1.0791 C577.8503,1.3537 579.2483,1.8287 580.2903,2.5052 C581.3319,3.1812 582.0723,4.1225 582.511,5.3287 C582.9492,6.5349 583.1686,8.0704 583.1686,9.9347 C583.1686,11.3235 583.05,12.4934 582.8122,13.4439 C582.5749,14.394 582.2277,15.1983 581.7706,15.8563 C581.3135,16.5144 580.7562,17.081 580.0981,17.556 C579.4405,18.0315 578.7093,18.4518 577.905,18.8174 C578.7093,19.183 579.4492,19.5941 580.1257,20.0507 C580.8017,20.5078 581.3687,21.0652 581.8253,21.7233 C582.2825,22.3813 582.6389,23.1948 582.8945,24.1633 C583.1507,25.1317 583.2785,26.2924 583.2785,27.6449 C583.2785,29.5092 583.05,31.0539 582.5929,32.2785 C582.1362,33.5026 581.3774,34.4715 580.3175,35.1843 C579.2575,35.8971 577.8503,36.3905 576.0955,36.6646 C574.3411,36.9387 572.166,37.0762 569.5705,37.0762 C568.2912,37.0762 566.9847,37.0302 565.6502,36.9387 C564.3161,36.8477 563.0276,36.7106 561.7846,36.5276 C560.542,36.345 559.3813,36.1257 558.303,35.8695 C557.2246,35.6138 556.3017,35.303 555.5337,34.9374 L557.3432,29.2898 C557.8551,29.4729 558.577,29.6738 559.5092,29.8932 C560.4413,30.1125 561.4742,30.3227 562.6073,30.5236 C563.7404,30.7246 564.9282,30.8892 566.1712,31.0171 C567.4142,31.1449 568.5836,31.2093 569.6804,31.2093 C570.8135,31.2093 571.782,31.1813 572.5863,31.1273 C573.3906,31.0723 574.0486,30.8895 574.5605,30.5786 C575.0723,30.2683 575.4374,29.8019 575.6568,29.1807 C575.8761,28.5594 575.986,27.682 575.986,26.5489 C575.986,25.3059 575.8853,24.3461 575.6844,23.6702 C575.4834,22.9937 575.1541,22.4911 574.6975,22.1623 C574.2404,21.8335 573.6554,21.632 572.9427,21.5589 C572.2299,21.4858 571.3617,21.4495 570.3385,21.4495 L561.5105,21.4492 Z M641.9937,36.4729 L641.9937,7.2477 L627.7375,7.2477 L627.7375,36.4729 L620.5544,36.4729 L620.5544,1.2714 L649.1767,1.2714 L649.1767,36.4729 L641.9937,36.4729 Z M676.2543,6.3708 C674.8651,6.3708 673.5489,6.4347 672.3064,6.5625 C671.0634,6.6904 669.9671,7.1475 669.0165,7.9334 C668.066,8.7193 667.3169,9.9526 666.7683,11.6344 C666.2201,13.3161 665.946,15.7101 665.946,18.8174 C665.946,21.9242 666.2201,24.3187 666.7683,26 C667.3169,27.6817 668.066,28.9155 669.0165,29.7014 C669.9671,30.4873 671.0634,30.9439 672.3064,31.0718 C673.5489,31.2001 674.8651,31.264 676.2543,31.264 C677.6068,31.264 678.9045,31.2 680.147,31.0718 C681.39,30.9439 682.4868,30.4873 683.4369,29.7014 C684.3874,28.9155 685.1457,27.6817 685.7127,26 C686.2793,24.3187 686.5626,21.9242 686.5626,18.8174 C686.5626,15.7101 686.2793,13.3161 685.7127,11.6344 C685.1457,9.9526 684.3782,8.7193 683.4098,7.9334 C682.4408,7.1475 681.3353,6.6904 680.0923,6.5625 C678.8493,6.4347 677.57,6.3708 676.2543,6.3708 L676.2543,6.3708 Z M658.5984,18.8174 C658.5984,14.8695 659.0647,11.6983 659.9968,9.3042 C660.929,6.9097 662.1899,5.0639 663.7801,3.7661 C665.3703,2.4684 667.2346,1.6094 669.3729,1.1891 C671.5113,0.7687 673.8051,0.5586 676.2543,0.5586 C678.703,0.5586 680.9968,0.7687 683.1357,1.1891 C685.274,1.6094 687.1383,2.4684 688.728,3.7661 C690.3182,5.0639 691.5797,6.9097 692.5118,9.3042 C693.4439,11.6983 693.9098,14.8695 693.9098,18.8174 C693.9098,22.7653 693.4439,25.936 692.5118,28.3306 C691.5797,30.7246 690.3182,32.5709 688.728,33.8682 C687.1383,35.1659 685.274,36.025 683.1357,36.4453 C680.9968,36.8661 678.703,37.0762 676.2543,37.0762 C673.8051,37.0762 671.5113,36.8661 669.3729,36.4453 C667.2346,36.025 665.3703,35.1659 663.7801,33.8682 C662.1899,32.5709 660.929,30.7246 659.9968,28.3306 C659.0647,25.936 658.5984,22.7653 658.5984,18.8174 L658.5984,18.8174 Z M732.6117,34.7732 C731.0763,35.5044 729.1849,36.0889 726.9366,36.5276 C724.6883,36.9663 722.2851,37.1856 719.7264,37.1856 C717.021,37.1856 714.5815,36.9571 712.4063,36.5005 C710.2312,36.0434 708.3761,35.1567 706.8411,33.8411 C705.3056,32.5249 704.1178,30.6699 703.2767,28.2758 C702.4361,25.8813 702.0158,22.7469 702.0158,18.8721 C702.0158,14.9973 702.4361,11.8629 703.2767,9.4684 C704.1178,7.0744 705.3056,5.2193 706.8411,3.9032 C708.3761,2.587 710.2312,1.7009 712.4063,1.2438 C714.5815,0.7871 717.021,0.5586 719.7264,0.5586 C724.8437,0.5586 728.9563,1.2898 732.0631,2.7517 L730.254,8.3992 C729.1936,8.0704 727.7501,7.6593 725.9221,7.1654 C724.0946,6.672 722.0657,6.4255 719.8359,6.4255 C718.3372,6.4255 716.9479,6.5349 715.6686,6.7543 C714.3893,6.9737 713.2838,7.5039 712.3516,8.3445 C711.4195,9.1851 710.6883,10.4373 710.1581,12.1002 C709.6283,13.7635 709.363,16.021 709.363,18.8721 C709.363,21.7601 709.6283,24.0354 710.1581,25.6988 C710.6883,27.3616 711.4195,28.6046 712.3516,29.4269 C713.2838,30.2496 714.3893,30.7706 715.6686,30.9899 C716.9479,31.2093 718.3372,31.3187 719.8359,31.3187 C720.9326,31.3187 722.0294,31.2367 723.1257,31.0718 C724.2225,30.9076 725.2461,30.7154 726.1962,30.496 C727.1467,30.2772 728.0242,30.0394 728.8285,29.7832 C729.6323,29.5276 730.2904,29.3082 730.8022,29.1257 L732.6117,34.7732 Z M740.8272,36.4729 L740.8272,1.2714 L755.0286,1.2714 C757.6241,1.2714 759.7988,1.4084 761.5536,1.6825 C763.308,1.9566 764.7156,2.496 765.7756,3.2998 C766.8356,4.1041 767.5944,5.2464 768.051,6.7272 C768.5081,8.2075 768.7367,10.1541 768.7367,12.5665 C768.7367,14.9789 768.5081,16.9255 768.051,18.4058 C767.5944,19.8866 766.8356,21.0197 765.7756,21.8056 C764.7156,22.5915 763.308,23.1217 761.5536,23.3958 C759.7988,23.6699 757.6241,23.8069 755.0286,23.8069 L748.0649,23.8069 L748.0649,36.4729 L740.8272,36.4729 Z M761.3343,12.4019 C761.3343,11.1593 761.2248,10.1812 761.0055,9.4684 C760.7861,8.7556 760.4389,8.2259 759.9634,7.8782 C759.4884,7.531 758.8487,7.3208 758.0444,7.2477 C757.2401,7.1746 756.2716,7.1383 755.1385,7.1383 L748.0649,7.1383 L748.0649,17.94 L755.1385,17.94 C756.2716,17.94 757.2401,17.9032 758.0444,17.8301 C758.8487,17.7569 759.4884,17.5468 759.9634,17.1996 C760.4389,16.8524 760.7861,16.3314 761.0055,15.637 C761.2248,14.9426 761.3343,13.9737 761.3343,12.7311 L761.3343,12.4019 Z M781.6128,21.2298 C781.7227,23.3866 781.9876,25.123 782.4079,26.4387 C782.8282,27.7548 783.4587,28.7693 784.2998,29.4821 C785.1404,30.1948 786.2004,30.6791 787.4797,30.9347 C788.759,31.1909 790.3308,31.3187 792.1951,31.3187 C793.2919,31.3187 794.4158,31.218 795.5673,31.0171 C796.7188,30.8161 797.8156,30.5783 798.8571,30.3043 C799.8992,30.0302 800.8493,29.7469 801.7083,29.4545 C802.5673,29.162 803.253,28.9242 803.7648,28.7417 L805.5739,34.3892 C804.8064,34.7548 803.8742,35.102 802.7775,35.4313 C801.6812,35.7601 800.5021,36.0526 799.2411,36.3082 C797.9802,36.5644 796.6733,36.7745 795.3208,36.9387 C793.9684,37.1033 792.6522,37.1856 791.3729,37.1856 C788.6312,37.1856 786.2004,36.9663 784.0804,36.5276 C781.96,36.0889 780.1688,35.2206 778.7069,33.9234 C777.2446,32.6257 776.1299,30.8161 775.3619,28.4947 C774.5944,26.1738 774.2109,23.1125 774.2109,19.3108 C774.2109,15.3629 774.622,12.1646 775.4442,9.7154 C776.2669,7.2661 777.4184,5.3655 778.8987,4.0126 C780.379,2.6601 782.1338,1.7464 784.1627,1.2714 C786.1912,0.7959 788.4302,0.5586 790.8795,0.5586 C793.5113,0.5586 795.8414,0.8143 797.8703,1.3261 C799.8992,1.8379 801.608,2.7609 802.9968,4.0949 C804.3861,5.4294 805.446,7.2477 806.1772,9.5507 C806.9084,11.8537 807.274,14.8148 807.274,18.4334 L807.274,21.2298 L781.6128,21.2298 Z M799.8169,15.3082 C799.707,13.4071 799.4513,11.8721 799.0494,10.7022 C798.647,9.5323 798.0804,8.6278 797.3492,7.9881 C796.6185,7.3484 795.7227,6.9189 794.6627,6.6996 C793.6028,6.4802 792.3414,6.3708 790.8795,6.3708 C789.6001,6.3708 788.421,6.4347 787.3427,6.5625 C786.2643,6.6904 785.3137,7.0468 784.4915,7.6317 C783.6688,8.2167 783.0112,9.112 782.5178,10.3182 C782.0239,11.5249 781.7227,13.1878 781.6128,15.3082 L799.8169,15.3082 Z M840.9865,43.2719 L840.9865,36.4729 L819.7666,36.4729 L819.7666,41.8463 L813.8997,42.3945 L813.8997,30.496 L815.1059,30.496 C816.1659,30.1672 816.961,29.3266 817.4912,27.9742 C818.021,26.6217 818.3594,24.5744 818.5057,21.8332 L819.4925,1.2714 L843.7277,1.2714 L843.7277,30.496 L846.9081,30.496 L846.9081,42.7238 L840.9865,43.2719 Z M836.5451,7.2477 L826.127,7.2477 L825.6883,21.6138 C825.5788,23.8432 825.3411,25.6712 824.9755,27.0967 C824.6099,28.5223 824.0617,29.6554 823.3305,30.496 L836.5451,30.496 L836.5451,7.2477 Z M878.0983,36.4729 L878.0983,20.7364 L863.8421,20.7364 L863.8421,36.4729 L856.659,36.4729 L856.659,1.2714 L863.8421,1.2714 L863.8421,14.7596 L878.0983,14.7596 L878.0983,1.2714 L885.2813,1.2714 L885.2813,36.4729 L878.0983,36.4729 Z M895.9092,36.4729 L895.9092,1.2714 L902.8729,1.2714 L902.8729,24.4102 L917.0743,1.2714 L924.7508,1.2714 L924.7508,36.4729 L917.7324,36.4729 L917.7324,13.2246 L903.5309,36.4729 L895.9092,36.4729 Z M945.3581,21.8332 L942.2329,21.8332 L942.2329,36.4729 L935.0498,36.4729 L935.0498,1.2714 L942.2329,1.2714 L942.2329,15.9658 L945.3581,15.9658 L956.5438,1.2714 L964.7137,1.2714 C962.4838,4.1956 960.2448,7.1291 957.997,10.0717 C955.7487,13.0144 953.4912,15.9479 951.225,18.8721 L961.2045,30.7154 C961.4602,30.9347 961.7894,31.0994 962.1914,31.2093 C962.5933,31.3187 963.0136,31.3827 963.4523,31.4011 C963.891,31.4191 964.3297,31.4191 964.7684,31.4011 C965.2071,31.3831 965.6274,31.3731 966.0293,31.3731 L965.4265,36.4725 C964.2934,36.5819 963.215,36.6463 962.1914,36.6642 C961.1677,36.6822 960.1716,36.5272 959.2032,36.1984 C958.2342,35.8691 957.2566,35.3302 956.2697,34.5806 C955.2824,33.8315 954.2592,32.7623 953.1992,31.3731 L945.3581,21.8332 Z M990.7497,6.3708 C989.3605,6.3708 988.0443,6.4347 986.8018,6.5625 C985.5588,6.6904 984.4625,7.1475 983.5119,7.9334 C982.5614,8.7193 981.8123,9.9526 981.2637,11.6344 C980.7155,13.3161 980.4414,15.7101 980.4414,18.8174 C980.4414,21.9242 980.7155,24.3187 981.2637,26 C981.8123,27.6817 982.5614,28.9155 983.5119,29.7014 C984.4625,30.4873 985.5588,30.9439 986.8018,31.0718 C988.0443,31.2001 989.3605,31.264 990.7497,31.264 C992.1022,31.264 993.3999,31.2 994.6424,31.0718 C995.8854,30.9439 996.9822,30.4873 997.9323,29.7014 C998.8828,28.9155 999.6411,27.6817 1000.2081,26 C1000.7747,24.3187 1001.058,21.9242 1001.058,18.8174 C1001.058,15.7101 1000.7747,13.3161 1000.2081,11.6344 C999.6411,9.9526 998.8736,8.7193 997.9052,7.9334 C996.9362,7.1475 995.8307,6.6904 994.5877,6.5625 C993.3447,6.4347 992.0654,6.3708 990.7497,6.3708 L990.7497,6.3708 Z M973.0938,18.8174 C973.0938,14.8695 973.5601,11.6983 974.4922,9.3042 C975.4244,6.9097 976.6853,5.0639 978.2755,3.7661 C979.8657,2.4684 981.73,1.6094 983.8683,1.1891 C986.0067,0.7687 988.3005,0.5586 990.7497,0.5586 C993.1985,0.5586 995.4922,0.7687 997.6311,1.1891 C999.7694,1.6094 1001.6337,2.4684 1003.2234,3.7661 C1004.8136,5.0639 1006.0751,6.9097 1007.0072,9.3042 C1007.9393,11.6983 1008.4052,14.8695 1008.4052,18.8174 C1008.4052,22.7653 1007.9393,25.936 1007.0072,28.3306 C1006.0751,30.7246 1004.8136,32.5709 1003.2234,33.8682 C1001.6337,35.1659 999.7694,36.025 997.6311,36.4453 C995.4922,36.8661 993.1985,37.0762 990.7497,37.0762 C988.3005,37.0762 986.0067,36.8661 983.8683,36.4453 C981.73,36.025 979.8657,35.1659 978.2755,33.8682 C976.6853,32.5709 975.4244,30.7246 974.4922,28.3306 C973.5601,25.936 973.0938,22.7653 973.0938,18.8174 L973.0938,18.8174 Z" id="path2"></path>
                <path d="M1017.7721,36.4729 L1017.7721,1.2714 L1032.851,1.2714 C1035.4464,1.2714 1037.6211,1.39 1039.376,1.6278 C1041.1303,1.865 1042.5288,2.3037 1043.5703,2.9434 C1044.6124,3.5831 1045.3523,4.4881 1045.791,5.6575 C1046.2297,6.8274 1046.4491,8.3445 1046.4491,10.2088 C1046.4491,11.598 1046.3581,12.749 1046.175,13.6633 C1045.992,14.577 1045.7087,15.3537 1045.3252,15.9934 C1044.9412,16.633 1044.4662,17.1725 1043.8991,17.6112 C1043.3326,18.0494 1042.6837,18.4518 1041.953,18.8174 C1042.6837,19.183 1043.351,19.5757 1043.9543,19.996 C1044.5572,20.4163 1045.069,20.9466 1045.4893,21.5862 C1045.9097,22.2259 1046.2297,23.0118 1046.4491,23.9439 C1046.6684,24.8761 1046.7779,26.0184 1046.7779,27.3708 C1046.7779,29.2351 1046.5493,30.7614 1046.0927,31.9492 C1045.6356,33.1375 1044.8773,34.0604 1043.8173,34.7185 C1042.7568,35.3761 1041.3497,35.8332 1039.5953,36.0889 C1037.8405,36.345 1035.6658,36.4729 1033.0703,36.4729 L1017.7721,36.4729 Z M1033.1798,30.6059 C1034.3129,30.6059 1035.2818,30.5879 1036.0861,30.5509 C1036.8899,30.5139 1037.548,30.4047 1038.0598,30.2217 C1038.5717,30.0391 1038.9372,29.7282 1039.1566,29.2895 C1039.376,28.8508 1039.4854,28.2111 1039.4854,27.3705 C1039.4854,25.9449 1039.3852,24.8482 1039.1837,24.0807 C1038.9828,23.3132 1038.654,22.7558 1038.1969,22.4081 C1037.7402,22.0609 1037.1553,21.86 1036.4425,21.8053 C1035.7297,21.7506 1034.8615,21.723 1033.8378,21.723 L1023.9136,21.723 L1023.9136,30.6056 L1033.1798,30.6059 Z M1033.8378,15.8563 C1034.8247,15.8563 1035.6658,15.8108 1036.3602,15.7193 C1037.0546,15.6278 1037.6027,15.4084 1038.0051,15.0612 C1038.407,14.714 1038.6995,14.1751 1038.8825,13.4439 C1039.0651,12.7127 1039.1566,11.6891 1039.1566,10.3734 C1039.1566,9.6054 1039.0467,9.0118 1038.8273,8.5915 C1038.608,8.1707 1038.2608,7.8511 1037.7857,7.6317 C1037.3107,7.4124 1036.6706,7.2753 1035.8667,7.2206 C1035.0624,7.1654 1034.0935,7.1383 1032.9604,7.1383 L1023.9136,7.1383 L1023.9136,15.8563 L1033.8378,15.8563 Z" id="path4"></path>
            </g>
            <path d="M57.0484,305.2315 C73.1216,306.512 88.7361,307.4358 88.7361,307.4358 C105.1087,307.4931 121.3794,306.6363 136.8091,304.2664 C168.121,299.4565 190.1253,288.9609 214.5727,269.7151 C258.3392,235.2816 295.7573,213.2805 348.2484,215.8192 C330.3659,293.9937 260.3969,352.3171 176.801,352.3171 C130.534,352.3171 88.4494,334.4411 57.0484,305.2315 L57.0484,305.2315 Z M351.7873,194.2481 C352.3766,188.3903 352.6792,182.4497 352.6792,176.4389 C352.6792,163.4141 351.2522,150.7237 348.5638,138.508 C270.0357,115.8953 201.1242,196.2294 124.6157,220.3806 C95.4125,229.5926 55.8411,233.3959 6.1563,219.1543 C11.9663,242.4327 22.4111,263.8795 36.4616,282.45 C139.8543,291.181 169.1594,277.0796 200.7834,252.1925 C242.0271,219.7404 303.6983,187.2117 351.7873,194.2481 L351.7873,194.2481 Z M340.5399,112.1079 C320.6602,61.5408 278.0277,22.4185 225.2563,7.3232 C198.9423,39.4887 189.6379,80.4712 186.975,113.8153 C203.2807,116.4655 217.9969,125.4035 227.8683,138.7978 C258.3965,121.6289 296.423,104.4058 340.5399,112.1079 L340.5399,112.1079 Z M199.487,2.0132 C192.0619,1.0545 184.4872,0.5607 176.801,0.5607 C125.7305,0.5607 79.7503,22.3389 47.6198,57.1036 C63.9924,102.2493 94.6226,128.8023 122.1407,144.2225 C130.9704,129.2737 145.7536,118.2684 163.2283,114.4587 C165.7479,80.1463 174.6063,37.6858 199.487,2.0132 L199.487,2.0132 Z M30.6069,78.6428 C11.858,106.6069 0.9228,140.244 0.9228,176.4389 C0.9228,181.9687 1.1872,187.4379 1.6905,192.837 C51.3626,209.4995 89.7872,206.4607 117.1238,197.9686 C114.6424,191.0947 113.3587,183.813 113.3587,176.4389 C113.3587,173.1803 113.604,169.9823 114.0786,166.8575 C84.4582,151.0327 50.9548,124.0529 30.6069,78.6428 L30.6069,78.6428 Z" id="path7"></path>
            <g id="Layer1001" transform="translate(403.000000, 0.000000)">
                <path d="M112.3785,184.0526 L112.3785,281.8456 L61.1725,281.8456 L61.1725,183.0146 L0.3112,17.1898 L54.7784,17.1898 L86.973,113.9892 L119.4379,17.1898 L173.9102,17.1898 L112.3785,184.0526 Z M275.8947,235.8623 C295.8209,235.8623 298.2014,216.55 298.2014,200.4047 L298.2014,17.1898 L348.4327,17.1898 L348.4327,200.4047 C348.4327,248.8831 329.8386,286.6596 276.2196,286.6596 C253.6803,286.6596 233.7403,279.2855 219.4796,261.3943 C205.9201,244.1068 201.7321,221.9009 201.7321,200.4047 L201.7321,17.1898 L251.9633,17.1898 L251.9633,200.4047 C251.9633,217.8548 255.1253,235.8623 275.8947,235.8623 L275.8947,235.8623 Z M450.0136,230.7063 L513.0279,230.7063 L513.0279,281.8456 L399.4591,281.8456 L399.4591,17.1898 L450.0136,17.1898 L450.0136,230.7063 Z M613.2544,170.9822 C600.0181,162.0229 586.7459,153.1166 573.4412,144.2582 L572.9213,143.9128 L572.4579,143.4938 C555.3824,128.1147 547.8664,108.0431 547.8664,85.2216 C547.8664,66.1316 552.2888,47.3716 565.0685,32.68 C577.7712,18.0773 595.1973,12.3758 614.2343,12.3758 C633.3602,12.3758 649.9432,19.0453 661.9021,34.2328 C673.3137,48.9056 677.353,66.9336 677.353,85.2216 L677.353,93.7722 L627.7716,93.7722 L627.7716,85.2216 C627.7716,74.453 626.5882,61.4527 613.2595,61.4527 C608.1292,61.4527 604.6987,63.4604 601.9505,67.8229 C598.6996,72.8831 597.7744,79.3183 597.7744,85.2216 C597.7744,93.4285 600.172,100.522 605.8325,106.5126 L605.9676,106.6596 C611.139,112.3954 620.584,117.76 627.3748,121.3546 C660.1577,139.0475 681.5752,165.6415 681.5752,203.8421 C681.5752,224.2728 677.5223,245.0542 664.9153,261.5893 C651.8175,279.0598 633.2457,286.6596 611.6366,286.6596 C590.1268,286.6596 571.1907,279.4839 558.2725,261.8184 C546.2127,245.1944 542.6711,223.953 542.6711,203.8421 L542.6711,195.2915 L592.2525,195.2915 L592.2525,203.8421 C592.2525,217.1211 593.6035,236.8952 610.9868,236.8952 C629.5467,236.8952 631.3423,217.4529 631.3423,202.8109 C631.3423,188.935 624.3342,178.8829 613.2544,170.9822 L613.2544,170.9822 Z M797.2902,235.8623 C817.2165,235.8623 819.597,216.55 819.597,200.4047 L819.597,17.1898 L869.8282,17.1898 L869.8282,200.4047 C869.8282,248.8831 851.2341,286.6596 797.6152,286.6596 C775.0758,286.6596 755.1359,279.2855 740.8769,261.3943 C727.3157,244.1068 723.1276,221.9009 723.1276,200.4047 L723.1276,17.1898 L773.3589,17.1898 L773.3589,200.4047 C773.3589,217.8548 776.5226,235.8623 797.2902,235.8623 L797.2902,235.8623 Z M969.8546,125.5 L971.4998,281.8456 L921.8277,281.8456 L921.8277,17.1898 L968.1599,17.1898 L1044.6004,171.1891 L1043.2306,17.1898 L1092.8907,17.1898 L1092.8907,281.8456 L1047.4768,281.8456 L969.8546,125.5 Z" id="path9"></path>
                <g id="Layer1002" transform="translate(1128.000000, 0.000000)">
                    <path d="M97.5413,48.7517 C97.5413,75.6501 75.722,97.4695 48.8235,97.4695 C21.9251,97.4695 0.1057,75.6501 0.1057,48.7517 C0.1057,21.8533 21.9251,0.0339 48.8235,0.0339 C75.722,0.0339 97.5413,21.8533 97.5413,48.7517 L97.5413,48.7517 Z M87.8928,48.7517 C87.8928,27.1803 70.3949,9.6824 48.8235,9.6824 C27.2521,9.6824 9.7542,27.1803 9.7542,48.7517 C9.7542,70.3231 27.2521,87.821 48.8235,87.821 C70.3949,87.821 87.8928,70.3231 87.8928,48.7517 L87.8928,48.7517 Z" id="path11"></path>
                    <path d="M72.5531,79.6637 L63.1731,79.6637 L44.6577,51.1578 L40.3191,51.1578 L40.3191,79.6637 L32.6646,79.6637 L32.6646,17.8379 L50.1728,17.8379 C63.0004,17.8379 69.4065,23.3838 69.4065,34.4637 C69.4065,44.6132 63.8059,50.1454 52.6166,51.0877 L72.5531,79.6637 Z M61.3638,34.4637 C61.3638,27.7207 57.4562,24.3552 49.6564,24.3552 L40.3191,24.3552 L40.3191,44.8937 L49.6564,44.8937 C57.4562,44.8937 61.3638,41.417 61.3638,34.4637 L61.3638,34.4637 Z" id="path13"></path>
                </g>
            </g>
        </g>
    </g>
</svg>