<?xml version="1.0" encoding="utf-8"?>
<!-- Generator: Adobe Illustrator 13.0.0, SVG Export Plug-In . SVG Version: 6.00 Build 14948)  -->
<!DOCTYPE svg PUBLIC "-//W3C//DTD SVG 1.1//EN" "http://www.w3.org/Graphics/SVG/1.1/DTD/svg11.dtd">
<svg version="1.1" id="Layer_1" xmlns="http://www.w3.org/2000/svg" xmlns:xlink="http://www.w3.org/1999/xlink" x="0px" y="0px"
	 width="82.667px" height="79.333px" viewBox="0 0 82.667 79.333" enable-background="new 0 0 82.667 79.333" xml:space="preserve">
<g>
	<path fill="#0C3469" stroke="#FFFFFF" stroke-width="2" stroke-linecap="round" stroke-linejoin="round" d="M53.38,21.604H28.619
		L12.787,37.905v1.237l4.951,4.952v3.715l22.154,22.284c0,0,1.174,1.238,2.412,1.238c2.051,0,3.681-1.663,3.681-3.714
		c0-1.239-1.254-2.477-1.254-2.477l2.468,2.477c0,0,1.232,1.237,2.471,1.237c2.051,0,3.712-1.663,3.712-3.714
		c0-1.237-1.237-2.477-1.237-2.477l1.236,1.239c0,0,1.238,1.237,2.477,1.237c2.049,0,3.713-1.663,3.713-3.714
		c0-1.237-1.238-2.477-1.238-2.477l-2.475-2.477c0,0,1.237,1.239,2.475,1.239c2.051,0,3.715-1.664,3.715-3.714
		c0-1.239-1.238-2.788-1.238-2.788l-1.238-1.546h1.238l4.801-4.333v-2.477l3.301-3.714v-1.237L53.38,21.604z"/>
	<path fill="#0C3469" stroke="#FFFFFF" stroke-width="2" stroke-linecap="round" stroke-linejoin="round" d="M23.667,55.237
		c0,0-1.238,1.237-2.477,1.237c-2.049,0-3.715-1.663-3.715-3.714c0-1.237,1.238-2.476,1.238-2.476L23.667,55.237z"/>
	<path fill="#0C3469" stroke="#FFFFFF" stroke-width="2" stroke-linecap="round" stroke-linejoin="round" d="M28.619,60.19
		c0,0-1.238,1.237-2.475,1.237c-2.051,0-3.715-1.664-3.715-3.714c0-1.239,1.238-2.477,1.238-2.477L28.619,60.19z"/>
	<path fill="#0C3469" stroke="#FFFFFF" stroke-width="2" stroke-linecap="round" stroke-linejoin="round" d="M33.572,65.142
		c0,0-1.238,1.237-2.477,1.237c-2.049,0-3.715-1.663-3.715-3.714c0-1.237,1.238-2.475,1.238-2.475L33.572,65.142z"/>
	<path fill="#0C3469" stroke="#FFFFFF" stroke-width="2" stroke-linecap="round" stroke-linejoin="round" d="M38.523,70.094
		c0,0-1.238,1.238-2.475,1.238c-2.051,0-3.715-1.663-3.715-3.714c0-1.239,1.238-2.477,1.238-2.477L38.523,70.094z"/>
	<polyline fill="#0C3469" stroke="#FFFFFF" stroke-width="2" stroke-linecap="round" stroke-linejoin="round" points="2.621,32.953 
		10.048,40.381 32.333,18.096 24.906,10.668 	"/>
	<polyline fill="#0C3469" stroke="#FFFFFF" stroke-width="2" stroke-linecap="round" stroke-linejoin="round" points="
		79.378,32.953 71.951,40.381 49.666,18.096 57.094,10.668 	"/>
	
		<line fill="#0C3469" stroke="#FFFFFF" stroke-width="2" stroke-linecap="round" stroke-linejoin="round" x1="28.468" y1="21.604" x2="53.228" y2="21.604"/>
	<polyline fill="#0C3469" stroke="#FFFFFF" stroke-width="2" stroke-linecap="round" stroke-linejoin="round" points="
		69.398,39.143 65.609,42.856 65.609,45.333 60.695,50.285 	"/>
	
		<line fill="#0C3469" stroke="#FFFFFF" stroke-width="2" stroke-linecap="round" stroke-linejoin="round" x1="44.714" y1="45.333" x2="58.332" y2="58.951"/>
	<path fill="#0C3469" stroke="#FFFFFF" stroke-width="2" stroke-linecap="round" stroke-linejoin="round" d="M60.808,51.523
		c0,0,1.238,1.237,1.238,2.477c0,2.05-1.664,3.714-3.715,3.714c-1.237,0-2.475-1.239-2.475-1.239"/>
	<path fill="#0C3469" stroke="#FFFFFF" stroke-width="2" stroke-linecap="round" stroke-linejoin="round" d="M58.332,58.951
		c0,0,1.238,1.239,1.238,2.477c0,2.051-1.664,3.714-3.713,3.714c-1.238,0-2.477-1.237-2.477-1.237L39.761,50.285"/>
	<path fill="#0C3469" stroke="#FFFFFF" stroke-width="2" stroke-linecap="round" stroke-linejoin="round" d="M52.142,62.665
		c0,0,1.238,1.239,1.238,2.477c0,2.051-1.664,3.714-3.715,3.714c-1.238,0-2.476-1.237-2.476-1.237L34.81,55.237"/>
	<path fill="#0C3469" stroke="#FFFFFF" stroke-width="2" stroke-linecap="round" stroke-linejoin="round" d="M44.714,65.142
		c0,0,1.237,1.237,1.237,2.477c0,2.051-1.663,3.714-3.714,3.714c-1.238,0-2.346-1.238-2.346-1.238L17.738,47.81v-3.715l-5.082-4.952
		"/>
	<path fill="#0C3469" stroke="#FFFFFF" stroke-width="2" stroke-linecap="round" stroke-linejoin="round" d="M23.667,55.237
		c0,0-1.238,1.237-2.477,1.237c-2.049,0-3.715-1.663-3.715-3.714c0-1.237,1.238-2.476,1.238-2.476"/>
	<path fill="#0C3469" stroke="#FFFFFF" stroke-width="2" stroke-linecap="round" stroke-linejoin="round" d="M28.619,60.19
		c0,0-1.238,1.237-2.475,1.237c-2.051,0-3.715-1.664-3.715-3.714c0-1.239,1.238-2.477,1.238-2.477"/>
	<path fill="#0C3469" stroke="#FFFFFF" stroke-width="2" stroke-linecap="round" stroke-linejoin="round" d="M33.572,65.142
		c0,0-1.238,1.237-2.477,1.237c-2.049,0-3.715-1.663-3.715-3.714c0-1.237,1.238-2.475,1.238-2.475"/>
	<path fill="#0C3469" stroke="#FFFFFF" stroke-width="2" stroke-linecap="round" stroke-linejoin="round" d="M38.523,70.094
		c0,0-1.238,1.238-2.475,1.238c-2.051,0-3.715-1.663-3.715-3.714c0-1.239,1.238-2.477,1.238-2.477"/>
	<path fill="#0C3469" stroke="#FFFFFF" stroke-width="2" stroke-linecap="round" stroke-linejoin="round" d="M60.526,51.523
		L44.15,35.429v-7.222H41l-6.189,6.086c0,0-1.238,1.188-2.477,1.188c-2.049,0-3.715-1.689-3.715-3.74
		c0-1.237,1.238-2.489,1.238-2.489l7.287-7.435"/>
	<path fill="#0C3469" stroke="#FFFFFF" stroke-width="2" stroke-linecap="round" stroke-linejoin="round" d="M54.335,34.396
		c0,2.051-1.381,3.714-3.432,3.714h-4.277"/>
	<polyline fill="#0C3469" stroke="#FFFFFF" stroke-width="2" stroke-linecap="round" stroke-linejoin="round" points="
		79.378,32.953 71.951,40.381 49.666,18.096 57.094,10.668 	"/>
	<polyline fill="#0C3469" stroke="#FFFFFF" stroke-width="2" stroke-linecap="round" stroke-linejoin="round" points="2.621,32.953 
		10.048,40.381 32.333,18.096 24.906,10.668 	"/>
</g>
</svg>
