<?xml version="1.0" encoding="utf-8"?>
<!-- Generator: Adobe Illustrator 13.0.0, SVG Export Plug-In . SVG Version: 6.00 Build 14948)  -->
<!DOCTYPE svg PUBLIC "-//W3C//DTD SVG 1.1//EN" "http://www.w3.org/Graphics/SVG/1.1/DTD/svg11.dtd">
<svg version="1.1" id="Layer_1" xmlns="http://www.w3.org/2000/svg" xmlns:xlink="http://www.w3.org/1999/xlink" x="0px" y="0px"
	 width="82.667px" height="79.333px" viewBox="0 0 82.667 79.333" enable-background="new 0 0 82.667 79.333" xml:space="preserve">
<g>
	<g>
		<path fill="#0C3469" stroke="#FFFFFF" stroke-width="2" stroke-linecap="round" stroke-linejoin="round" d="M56.337,69.586
			c0,2.574-2.088,4.66-4.66,4.66H15.181c-2.574,0-4.66-2.086-4.66-4.66v-46.98c0-2.573,2.086-4.66,4.66-4.66h36.497
			c2.572,0,4.66,2.087,4.66,4.66V69.586z"/>
		<g>
			
				<line fill="#0C3469" stroke="#FFFFFF" stroke-width="2" stroke-linecap="round" stroke-linejoin="round" x1="19.645" y1="35.418" x2="46.726" y2="35.418"/>
			
				<line fill="#0C3469" stroke="#FFFFFF" stroke-width="2" stroke-linecap="round" stroke-linejoin="round" x1="19.645" y1="43.863" x2="46.726" y2="43.863"/>
			
				<line fill="#0C3469" stroke="#FFFFFF" stroke-width="2" stroke-linecap="round" stroke-linejoin="round" x1="19.645" y1="52.309" x2="46.726" y2="52.309"/>
			
				<line fill="#0C3469" stroke="#FFFFFF" stroke-width="2" stroke-linecap="round" stroke-linejoin="round" x1="19.645" y1="60.754" x2="46.726" y2="60.754"/>
		</g>
		<path fill="#0C3469" d="M48.255,26.682h-2.33H22.922h-2.329v-2.331v-9.608v-2.329h2.329h4.538
			c1.142-2.761,3.849-4.659,6.963-4.659c3.113,0,5.822,1.898,6.965,4.659h4.538h2.33v2.329v9.608V26.682L48.255,26.682z"/>
		<path fill="#0C3469" stroke="#FFFFFF" stroke-width="2" stroke-linecap="round" stroke-linejoin="round" d="M39.606,14.742
			c-0.293-2.616-2.488-4.658-5.184-4.658s-4.89,2.042-5.184,4.658h-6.318v9.61h23.004v-9.61H39.606z"/>
		<g>
			<path fill="#0C3469" d="M56.337,61.043c-8.35,0-15.143-6.791-15.143-15.141c0-8.35,6.793-15.144,15.143-15.144
				s15.141,6.794,15.141,15.144C71.478,54.252,64.687,61.043,56.337,61.043L56.337,61.043z"/>
			
				<circle fill="#0C3469" stroke="#FFFFFF" stroke-width="2" stroke-linecap="round" stroke-linejoin="round" cx="56.336" cy="45.902" r="13.204"/>
		</g>
	</g>
	<polygon fill="#FFFFFF" points="48.396,46.582 51.691,43.287 54.701,46.299 61.646,39.357 64.939,42.65 54.701,52.891 
		48.396,46.582 	"/>
</g>
</svg>
