<?xml version="1.0" encoding="utf-8"?>
<!-- Generator: Adobe Illustrator 13.0.0, SVG Export Plug-In . SVG Version: 6.00 Build 14948)  -->
<!DOCTYPE svg PUBLIC "-//W3C//DTD SVG 1.1//EN" "http://www.w3.org/Graphics/SVG/1.1/DTD/svg11.dtd">
<svg version="1.1" id="Layer_1" xmlns="http://www.w3.org/2000/svg" xmlns:xlink="http://www.w3.org/1999/xlink" x="0px" y="0px"
	 width="82.667px" height="79.333px" viewBox="0 0 82.667 79.333" enable-background="new 0 0 82.667 79.333" xml:space="preserve">
<g>
	
		<circle fill="#0C3469" stroke="#FFFFFF" stroke-width="2" stroke-linecap="round" stroke-linejoin="round" cx="35.336" cy="35.39" r="25.633"/>
	<text transform="matrix(1 0 0 1 21.7114 39.9863)" fill="#FFFFFF" font-family="'OpenSans'" font-size="21.131">24</text>
	<path fill="#0C3469" d="M28.12,72.242c-0.627,0-1.111-0.107-1.53-0.334c-3.297-1.791-4.601-3.031-7.485-6.125
		c-3.04-3.26-4.648-5.436-4.44-7.611c0.161-1.672,1.329-2.699,2.194-3.328c1.396-1.016,10.035-5.98,14.881-5.98
		c1.959,0,2.999,0.803,3.527,1.473c1.214,1.553,3.395,4.205,4.686,5.764c1.607-0.945,4.719-3.027,9.127-7.129
		c4.364-4.059,6.311-7.01,7.115-8.511c-1.535-1.288-4.245-3.554-5.817-4.805c-4.94-3.937,4.54-18.235,4.644-18.376
		c0.693-0.938,1.829-2.181,3.688-2.181c2.078,0,4.146,1.586,7.236,4.512c3.07,2.909,4.303,4.223,6.067,7.528
		c1.599,3.004-3.621,19.932-13.914,30.094C48.22,66.982,32.407,72.242,28.12,72.242L28.12,72.242z"/>
	<path fill="#0C3469" stroke="#FFFFFF" stroke-width="2" stroke-linecap="round" stroke-linejoin="round" d="M51.579,51.137
		c-7.125,6.625-10.997,8.188-10.997,8.188s-3.925-4.717-5.753-7.053c-2.221-2.832-13.984,3.672-15.658,4.891
		c-2.295,1.67-1.932,3.174,2.532,7.957c2.841,3.043,3.985,4.107,6.978,5.732c1.508,0.818,18.575-3.902,29.148-14.34
		c10.408-10.275,14.343-26.251,13.555-27.73c-1.603-3.004-2.657-4.157-5.68-7.021c-4.75-4.5-6.25-4.875-7.938-2.592
		c-1.23,1.664-7.824,13.379-5.008,15.62c2.32,1.847,7.01,5.807,7.01,5.807S58.704,44.512,51.579,51.137z"/>
</g>
</svg>
