<?xml version="1.0" encoding="utf-8"?>
<!-- Generator: Adobe Illustrator 13.0.0, SVG Export Plug-In . SVG Version: 6.00 Build 14948)  -->
<!DOCTYPE svg PUBLIC "-//W3C//DTD SVG 1.1//EN" "http://www.w3.org/Graphics/SVG/1.1/DTD/svg11.dtd">
<svg version="1.1" id="Layer_1" xmlns="http://www.w3.org/2000/svg" xmlns:xlink="http://www.w3.org/1999/xlink" x="0px" y="0px"
	 width="82.667px" height="79.333px" viewBox="0 0 82.667 79.333" enable-background="new 0 0 82.667 79.333" xml:space="preserve">
<g>
	<path fill="none" stroke="#FFFFFF" stroke-width="2" stroke-linecap="round" stroke-linejoin="round" d="M19.348,21.766
		c9.2,0,32.041,0,40.289,0c8.249,0,18.399,13.799,20.779,20.145c0,0,0,6.027,0,8.566c0,2.537-0.951,4.6-6.266,4.6
		c-6.9,0-42.113,0-45.285,0c-7.773,0-7.614,0.635-7.614-7.297"/>
	
		<line fill="none" stroke="#FFFFFF" stroke-width="2" stroke-linecap="round" stroke-linejoin="round" x1="7.452" y1="29.062" x2="33.307" y2="29.062"/>
	
		<line fill="none" stroke="#FFFFFF" stroke-width="2" stroke-linecap="round" stroke-linejoin="round" x1="12.686" y1="34.93" x2="38.542" y2="34.93"/>
	
		<line fill="none" stroke="#FFFFFF" stroke-width="2" stroke-linecap="round" stroke-linejoin="round" x1="1.583" y1="40.798" x2="33.307" y2="40.798"/>
	
		<line fill="none" stroke="#FFFFFF" stroke-width="2" stroke-linecap="round" stroke-linejoin="round" x1="12.845" y1="46.352" x2="26.645" y2="46.352"/>
	<path fill="none" stroke="#FFFFFF" stroke-width="2" stroke-linecap="round" stroke-linejoin="round" d="M57.417,27.634
		c0,11.263,0.158,11.738,7.455,11.738c8.883,0,13.642,0.158,13.642,0.158"/>
	
		<circle fill="#0C3469" stroke="#FFFFFF" stroke-width="2" stroke-linecap="round" stroke-linejoin="round" cx="34.997" cy="54.006" r="6.227"/>
	
		<circle fill="#0C3469" stroke="#FFFFFF" stroke-width="2" stroke-linecap="round" stroke-linejoin="round" cx="66.417" cy="54.006" r="6.227"/>
</g>
</svg>
