<?xml version="1.0" encoding="utf-8"?>
<!-- Generator: Adobe Illustrator 13.0.0, SVG Export Plug-In . SVG Version: 6.00 Build 14948)  -->
<!DOCTYPE svg PUBLIC "-//W3C//DTD SVG 1.1//EN" "http://www.w3.org/Graphics/SVG/1.1/DTD/svg11.dtd">
<svg version="1.1" id="Layer_1" xmlns="http://www.w3.org/2000/svg" xmlns:xlink="http://www.w3.org/1999/xlink" x="0px" y="0px"
	 width="82.667px" height="79.333px" viewBox="0 0 82.667 79.333" enable-background="new 0 0 82.667 79.333" xml:space="preserve">
<g>
	<g>
		<path fill="none" stroke="#FFFFFF" stroke-width="2" stroke-linecap="round" stroke-linejoin="round" d="M69.875,72.462
			c0,1.657-1.344,3-3,3h-51.75c-1.656,0-3-1.343-3-3v-38c0-1.657,1.344-3,3-3h51.75c1.656,0,3,1.343,3,3V72.462z"/>
		
			<line fill="none" stroke="#FFFFFF" stroke-width="2" stroke-linecap="round" stroke-linejoin="round" x1="26.125" y1="32.212" x2="26.125" y2="74.962"/>
		
			<line fill="none" stroke="#FFFFFF" stroke-width="2" stroke-linecap="round" stroke-linejoin="round" x1="12.875" y1="43.462" x2="33.625" y2="43.462"/>
		
			<line fill="none" stroke="#FFFFFF" stroke-width="2" stroke-linecap="round" stroke-linejoin="round" x1="26.625" y1="62.962" x2="38.875" y2="62.962"/>
		<polyline fill="none" stroke="#FFFFFF" stroke-width="2" stroke-linecap="round" stroke-linejoin="round" points="39.125,75.462 
			39.125,52.962 46.875,45.212 		"/>
		<polyline fill="none" stroke="#FFFFFF" stroke-width="2" stroke-linecap="round" stroke-linejoin="round" points="69.875,46.712 
			57.625,46.712 57.625,74.962 		"/>
		
			<line fill="none" stroke="#FFFFFF" stroke-width="2" stroke-linecap="round" stroke-linejoin="round" x1="50.125" y1="55.712" x2="57.125" y2="55.712"/>
	</g>
	<g>
		<path fill="#0C3469" d="M48.876,53.04l-1.735-3.02c-1.284-2.238-12.561-22.068-12.561-29.187c0-7.884,6.411-14.296,14.296-14.296
			c7.881,0,14.293,6.412,14.293,14.296c0,7.118-11.274,26.948-12.559,29.187L48.876,53.04L48.876,53.04z"/>
		<path fill="#0C3469" stroke="#FFFFFF" stroke-width="2" stroke-linecap="round" stroke-linejoin="round" d="M61.169,20.833
			c0,6.79-12.295,28.19-12.295,28.19s-12.294-21.4-12.294-28.19c0-6.791,5.505-12.295,12.294-12.295
			C55.666,8.538,61.169,14.042,61.169,20.833z"/>
		
			<circle fill="#0C3469" stroke="#FFFFFF" stroke-width="2" stroke-linecap="round" stroke-linejoin="round" cx="48.875" cy="20.036" r="6.624"/>
	</g>
</g>
</svg>
