<svg width="51" height="50" viewBox="0 0 51 50" fill="none" xmlns="http://www.w3.org/2000/svg">
<path d="M43.8312 22.9167C43.2776 22.9167 42.7467 23.1362 42.3553 23.5269C41.9639 23.9176 41.744 24.4475 41.744 25.0001C41.744 29.4204 39.9848 33.6596 36.8534 36.7852C33.7219 39.9108 29.4748 41.6668 25.0464 41.6668C21.7488 41.6652 18.5255 40.6892 15.7829 38.8616C13.0403 37.0341 10.9013 34.4369 9.6355 31.3975C8.36974 28.3582 8.03392 25.0128 8.6704 21.7832C9.30688 18.5536 10.8872 15.5844 13.212 13.2501C14.7579 11.6863 16.6009 10.446 18.6329 9.60178C20.665 8.75755 22.8453 8.32635 25.0464 8.33342C26.381 8.34176 27.7108 8.49544 29.012 8.79175C29.2844 8.87582 29.571 8.90333 29.8544 8.87258C30.1378 8.84183 30.4118 8.75347 30.6597 8.61295C30.9075 8.47243 31.1239 8.28273 31.2955 8.05554C31.4671 7.82836 31.5902 7.5685 31.6573 7.29199C31.7244 7.01547 31.7341 6.72817 31.6857 6.44779C31.6373 6.16741 31.5319 5.89989 31.376 5.66173C31.2201 5.42357 31.0169 5.21981 30.7791 5.06302C30.5412 4.90623 30.2737 4.79973 29.993 4.75008C28.3716 4.36934 26.7121 4.17364 25.0464 4.16675C20.9228 4.18813 16.8979 5.42825 13.4797 7.73061C10.0616 10.033 7.40322 13.2944 5.84022 17.1033C4.27722 20.9122 3.87959 25.0978 4.69751 29.1321C5.51544 33.1663 7.51226 36.8683 10.436 39.7709C14.3113 43.6408 19.5647 45.8207 25.0464 45.8334C30.582 45.8334 35.8908 43.6385 39.8051 39.7315C43.7194 35.8245 45.9184 30.5254 45.9184 25.0001C45.9184 24.4475 45.6985 23.9176 45.307 23.5269C44.9156 23.1362 44.3847 22.9167 43.8312 22.9167Z" fill="#2D9CDB"/>
</svg>
