<svg width="49" height="50" viewBox="0 0 49 50" fill="none" xmlns="http://www.w3.org/2000/svg">
<path d="M6.04059 22.9167C6.57461 22.9167 7.08675 23.1362 7.46436 23.5269C7.84197 23.9176 8.0541 24.4475 8.0541 25.0001C8.0541 29.4204 9.7512 33.6596 12.7721 36.7852C15.7929 39.9108 19.8901 41.6668 24.1622 41.6668C27.3434 41.6652 30.4529 40.6892 33.0987 38.8616C35.7444 37.0341 37.8079 34.4369 39.029 31.3975C40.2501 28.3582 40.5741 25.0128 39.9601 21.7832C39.346 18.5536 37.8216 15.5844 35.5788 13.2501C34.0874 11.6863 32.3095 10.446 30.3492 9.60178C28.3889 8.75755 26.2855 8.32635 24.1622 8.33342C22.8747 8.34176 21.5919 8.49544 20.3365 8.79175C20.0738 8.87582 19.7973 8.90333 19.5239 8.87258C19.2506 8.84183 18.9862 8.75347 18.7471 8.61295C18.508 8.47243 18.2992 8.28273 18.1337 8.05554C17.9682 7.82836 17.8494 7.5685 17.7846 7.29199C17.7199 7.01547 17.7106 6.72817 17.7573 6.44779C17.8039 6.16741 17.9056 5.89989 18.0561 5.66173C18.2065 5.42357 18.4025 5.21981 18.6319 5.06302C18.8614 4.90623 19.1194 4.79973 19.3902 4.75008C20.9544 4.36934 22.5553 4.17364 24.1622 4.16675C28.1402 4.18813 32.023 5.42825 35.3205 7.73061C38.618 10.033 41.1825 13.2944 42.6903 17.1033C44.1981 20.9122 44.5817 25.0978 43.7927 29.1321C43.0036 33.1663 41.0773 36.8683 38.2568 39.7709C34.5183 43.6408 29.4504 45.8207 24.1622 45.8334C18.822 45.8334 13.7006 43.6385 9.92452 39.7315C6.14845 35.8245 4.02708 30.5254 4.02708 25.0001C4.02708 24.4475 4.23922 23.9176 4.61682 23.5269C4.99443 23.1362 5.50658 22.9167 6.04059 22.9167Z" fill="#2D9CDB"/>
</svg>
