<svg width="50" height="50" viewBox="0 0 50 50" fill="none" xmlns="http://www.w3.org/2000/svg">
<path d="M20.2292 23.5208C19.8369 23.1285 19.3049 22.9081 18.7501 22.9081C18.1953 22.9081 17.6632 23.1285 17.2709 23.5208C16.8786 23.9131 16.6582 24.4452 16.6582 25C16.6582 25.5548 16.8786 26.0869 17.2709 26.4792L23.5209 32.7292C23.7156 32.9223 23.9464 33.075 24.2003 33.1787C24.4541 33.2824 24.7259 33.3349 25.0001 33.3333C25.2853 33.3243 25.5656 33.2568 25.8236 33.1349C26.0816 33.0131 26.3119 32.8395 26.5001 32.625L41.0834 15.9583C41.4201 15.5403 41.5825 15.0084 41.5366 14.4735C41.4908 13.9387 41.2402 13.4422 40.8372 13.0875C40.4342 12.7329 39.9099 12.5475 39.3735 12.57C38.8372 12.5925 38.3303 12.8212 37.9584 13.2083L25.0001 28.2083L20.2292 23.5208Z" fill="#2F80ED"/>
<path d="M43.75 22.9167C43.1975 22.9167 42.6675 23.1362 42.2768 23.5269C41.8861 23.9176 41.6667 24.4475 41.6667 25C41.6667 29.4203 39.9107 33.6595 36.7851 36.7851C33.6595 39.9107 29.4203 41.6667 25 41.6667C21.7085 41.6652 18.4912 40.6891 15.7537 38.8616C13.0162 37.034 10.8811 34.4368 9.61766 31.3975C8.35423 28.3581 8.01904 25.0127 8.65434 21.7831C9.28964 18.5535 10.867 15.5844 13.1875 13.25C14.7306 11.6862 16.5702 10.4459 18.5984 9.60172C20.6267 8.75749 22.803 8.32629 25 8.33335C26.3322 8.34169 27.6595 8.49538 28.9583 8.79169C29.2301 8.87576 29.5163 8.90327 29.7991 8.87252C30.082 8.84177 30.3555 8.75341 30.6029 8.61289C30.8503 8.47237 31.0663 8.28267 31.2375 8.05548C31.4088 7.8283 31.5317 7.56844 31.5987 7.29192C31.6657 7.01541 31.6753 6.72811 31.627 6.44773C31.5787 6.16735 31.4735 5.89983 31.3179 5.66167C31.1622 5.42351 30.9595 5.21975 30.722 5.06296C30.4846 4.90617 30.2176 4.79967 29.9375 4.75002C28.319 4.36928 26.6626 4.17358 25 4.16669C20.884 4.18807 16.8666 5.42819 13.4548 7.73055C10.0429 10.0329 7.38951 13.2943 5.8294 17.1032C4.26929 20.9121 3.8724 25.0978 4.68881 29.132C5.50522 33.1663 7.49834 36.8683 10.4167 39.7709C14.2848 43.6407 19.5284 45.8206 25 45.8334C30.5253 45.8334 35.8244 43.6384 39.7314 39.7314C43.6384 35.8244 45.8333 30.5254 45.8333 25C45.8333 24.4475 45.6138 23.9176 45.2231 23.5269C44.8324 23.1362 44.3025 22.9167 43.75 22.9167Z" fill="#2D9CDB"/>
</svg>
