<svg width="74" height="31" viewBox="0 0 74 31" fill="none" xmlns="http://www.w3.org/2000/svg">
<g clip-path="url(#clip0)">
<path d="M1.55379 10.7048C1.55379 10.7048 -1.40702 5.6863 6.65802 5.59682C13.322 5.52253 19.166 2.66759 28.7587 0.616287C41.8858 -2.18885 49.6927 5.46597 49.1722 5.53013C48.6518 5.59429 44.208 2.52409 39.4716 2.09272C34.9451 1.68077 31.9767 1.48915 21.4385 4.33396C17.8113 5.31318 15.613 6.07461 12.4497 6.37429C6.99375 6.89176 5.68205 6.35656 3.83471 6.74825C0.918607 7.36786 1.55379 10.7048 1.55379 10.7048Z" fill="#5170B3"/>
<path d="M22.9442 5.36296C22.9442 5.36296 31.3432 7.69115 38.838 7.04621C46.3329 6.40127 57.4464 5.75296 64.2951 6.98121C71.1438 8.20946 72.695 11.1176 72.7591 11.7659C72.8233 12.4142 71.7899 14.999 71.7899 14.999C71.7899 14.999 71.8549 12.7358 71.2087 12.0251C70.5626 11.3143 67.0088 9.18024 62.7447 8.53362C58.4806 7.88699 41.4226 8.85693 38.0628 8.85693C34.703 8.85693 28.73 8.87803 24.8396 6.88076C22.988 5.92855 22.9442 5.36296 22.9442 5.36296Z" fill="#FFF343"/>
<path d="M4.44543 16.5277H2.42095L1.88952 17.4563H0L3.38595 12.1381H5.14725L6.4075 17.4563H4.62342L4.44543 16.5277ZM4.19237 15.2362L3.93931 13.8762L3.1582 15.2345L4.19237 15.2362Z" fill="#D24A43"/>
<path d="M12.2262 15.1332C12.3531 15.3172 12.4184 15.5369 12.4126 15.7604C12.4126 16.3232 12.1809 16.7453 11.7176 17.0266C11.2542 17.308 10.6584 17.4487 9.9301 17.4487H6.86301L7.92586 12.1305H10.7424C11.365 12.1305 11.8382 12.2405 12.1621 12.4606C12.3175 12.5615 12.444 12.701 12.5291 12.8656C12.6143 13.0302 12.6553 13.2141 12.648 13.3993C12.6525 13.682 12.5635 13.9583 12.3949 14.1852C12.2158 14.423 11.9756 14.6077 11.6998 14.7196C11.9096 14.807 12.0916 14.95 12.2262 15.1332V15.1332ZM10.4691 16.0787C10.5247 16.0371 10.5692 15.9825 10.5986 15.9196C10.628 15.8567 10.6415 15.7875 10.6378 15.7182C10.6401 15.6681 10.6298 15.6182 10.6078 15.573C10.5859 15.5279 10.553 15.489 10.5121 15.4599C10.4198 15.3964 10.3095 15.3644 10.1975 15.3687H9.04186L8.87315 16.2044H10.0271C10.1843 16.2122 10.3396 16.168 10.4691 16.0787V16.0787ZM9.43663 13.3934L9.2772 14.1835H10.1882C10.5819 14.1835 10.7787 14.029 10.7787 13.7201C10.781 13.6725 10.7711 13.6252 10.7498 13.5826C10.7285 13.54 10.6967 13.5036 10.6572 13.477C10.5518 13.4146 10.4302 13.3852 10.308 13.3925L9.43663 13.3934Z" fill="#D24A43"/>
<path d="M18.0078 13.5268H16.4287L15.6644 17.4546H13.9006L14.6674 13.5268H13.1338L13.4071 12.1364H18.2794L18.0078 13.5268Z" fill="#D24A43"/>
<path d="M35.4032 12.1364L34.3403 17.4546H32.5782L33.3449 13.5268H31.7279L30.9611 17.4546H29.1998L30.2627 12.1364H35.4032Z" fill="#D24A43"/>
<path d="M36.7874 17.2757C36.3992 17.0929 36.0722 16.8014 35.846 16.4366C35.6222 16.0629 35.5079 15.6338 35.5162 15.1982C35.5062 14.6188 35.6543 14.0476 35.9447 13.5462C36.2278 13.0653 36.641 12.6743 37.1367 12.4184C37.6698 12.1441 38.2623 12.0055 38.8617 12.0149C39.3528 12.0039 39.8397 12.1064 40.2847 12.3145C40.673 12.4976 41 12.7893 41.2261 13.1545C41.4513 13.5269 41.5673 13.9551 41.561 14.3903C41.5709 14.9699 41.4225 15.5411 41.1316 16.0423C40.8489 16.5256 40.435 16.9186 39.938 17.176C39.4044 17.4505 38.8112 17.5888 38.2113 17.5787C37.7197 17.5886 37.2325 17.4849 36.7874 17.2757V17.2757ZM39.1029 15.9047C39.3149 15.7558 39.4819 15.5514 39.5854 15.3138C39.699 15.058 39.7565 14.7808 39.7542 14.5009C39.7608 14.3633 39.7396 14.2258 39.6919 14.0966C39.6443 13.9673 39.571 13.849 39.4766 13.7488C39.2922 13.5614 39.0391 13.4677 38.7174 13.4677C38.4537 13.462 38.1947 13.5391 37.9768 13.688C37.7651 13.8369 37.5984 14.0414 37.4952 14.2789C37.3816 14.5347 37.3241 14.8119 37.3265 15.0918C37.3197 15.2294 37.3407 15.3669 37.3882 15.4961C37.4357 15.6253 37.5088 15.7437 37.6031 15.844C37.7882 16.0314 38.0426 16.1251 38.3665 16.1251C38.629 16.1303 38.8864 16.0532 39.1029 15.9047V15.9047Z" fill="#D24A43"/>
<path d="M47.0482 16.0643H47.7466L47.2607 18.4955H45.6209L45.8259 17.4546H42.8043L42.5994 18.4955H40.9595L41.4454 16.0643H41.5365C41.8452 16.0643 42.116 15.8541 42.3488 15.4337C42.5817 15.0133 42.7866 14.4309 42.9638 13.6863L43.3324 12.1364H47.8268L47.0482 16.0643ZM44.1101 15.259C44.0199 15.5458 43.8868 15.8173 43.7154 16.0643H45.2869L45.793 13.5268H44.5732L44.467 13.975C44.3404 14.5018 44.2215 14.9298 44.1101 15.259V15.259Z" fill="#D24A43"/>
<path d="M49.1283 12.1364H53.7366L53.4632 13.4871H50.6163L50.4948 14.1025H51.7601C52.3118 14.1025 52.7381 14.2291 53.039 14.4824C53.3398 14.7356 53.4905 15.0927 53.4911 15.5536C53.4986 15.915 53.3865 16.2688 53.1722 16.5598C52.9375 16.8624 52.6215 17.0916 52.2612 17.2208C51.8141 17.3845 51.3403 17.4632 50.8643 17.453H48.0655L49.1283 12.1364ZM50.9959 16.2011C51.1672 16.2102 51.3366 16.1621 51.4776 16.0643C51.5347 16.0226 51.5808 15.9676 51.612 15.9041C51.6431 15.8405 51.6584 15.7704 51.6564 15.6996C51.6564 15.4666 51.4919 15.3502 51.1629 15.3502H50.2443L50.0756 16.2011H50.9959Z" fill="#D24A43"/>
<path d="M70.172 12.5999C70.5617 12.9088 70.7566 13.3419 70.7566 13.899C70.7652 14.3156 70.6504 14.7253 70.4268 15.0766C70.1947 15.4258 69.8666 15.7003 69.482 15.8668C69.0358 16.0621 68.5526 16.158 68.0657 16.1479H67.1505L66.8923 17.4546H65.1007L66.1635 12.1364H68.5254C69.2334 12.1364 69.7823 12.2909 70.172 12.5999ZM68.738 14.5786C68.8078 14.512 68.8622 14.4309 68.8976 14.3412C68.933 14.2514 68.9485 14.155 68.943 14.0586C68.943 13.699 68.7203 13.5192 68.2749 13.5192H67.6751L67.4221 14.7652H68.1585C68.368 14.7786 68.5749 14.7119 68.7372 14.5786H68.738Z" fill="#D24A43"/>
<path d="M6.49015 26.6256C6.09106 27.0601 5.64068 27.4445 5.14893 27.7703C4.70691 28.055 4.31495 28.1957 3.97304 28.1923C3.57939 28.1923 3.39212 28.0111 3.41124 27.6487C3.43036 27.2863 3.63956 26.802 4.03883 26.1959C4.07173 26.1453 4.10716 26.0971 4.1409 26.0482H1.96036C1.87938 26.1647 1.79925 26.2823 1.71996 26.401C1.12386 27.3015 0.72852 28.0992 0.533945 28.7942C0.339369 29.4892 0.360458 30.0301 0.59721 30.4167C0.8334 30.8027 1.27851 30.9961 1.93253 30.9966C2.7097 30.9966 3.57714 30.7372 4.53483 30.2183C5.49253 29.6994 6.4536 28.9726 7.41804 28.0379C8.05544 27.418 8.64745 26.7531 9.18946 26.0482H6.99121C6.82925 26.2491 6.66307 26.4416 6.49015 26.6256Z" fill="#4D4D4D"/>
<path d="M7.62472 25.2091C7.49257 25.4033 7.35535 25.5921 7.21307 25.7755H9.39952C9.5373 25.5904 9.67283 25.4016 9.8061 25.2091H7.62472Z" fill="#4D4D4D"/>
<path d="M5.2805 24.6292C5.67982 24.1946 6.13016 23.81 6.62173 23.4836C7.06262 23.2023 7.45458 23.0616 7.79762 23.0616C8.19127 23.0616 8.37853 23.2425 8.35941 23.6044C8.34423 23.942 8.15949 24.3869 7.81027 24.9356H9.99418L10.0507 24.8512C10.6474 23.9507 11.0424 23.153 11.2359 22.458C11.4293 21.763 11.4085 21.2221 11.1734 20.8355C10.9373 20.4489 10.4921 20.2556 9.83813 20.2556C9.06151 20.2556 8.19408 20.515 7.23582 21.0339C6.27756 21.5528 5.3165 22.2788 4.35262 23.2118C3.79744 23.752 3.27679 24.3266 2.79376 24.9322H5.0072C5.09661 24.8301 5.18772 24.7279 5.2805 24.6292Z" fill="#4D4D4D"/>
<path d="M4.77356 25.2091H2.58037C2.43809 25.3943 2.2975 25.5831 2.1586 25.7755H4.33576C4.4741 25.5805 4.62257 25.3931 4.77356 25.2091Z" fill="#4D4D4D"/>
<path d="M7.62808 30.7654H9.75548L13.4519 26.0524H11.3245L7.62808 30.7654Z" fill="#4D4D4D"/>
<path d="M15.7075 23.1755H17.6155L19.7244 20.4886H13.8365L11.7277 23.1755H13.5801L12.2026 24.9322H14.33L15.7075 23.1755Z" fill="#4D4D4D"/>
<path d="M11.9858 25.2091L11.5412 25.7756H13.6686L14.1132 25.2091H11.9858Z" fill="#4D4D4D"/>
<path d="M25.6747 24.7026C26.2556 23.8213 26.6546 23.0455 26.8717 22.3753C27.0888 21.705 27.102 21.1839 26.9113 20.8119C26.7241 20.4405 26.3276 20.2545 25.7219 20.2539C25.1163 20.2533 24.4277 20.4346 23.6561 20.7975C22.8045 21.2062 22.0038 21.7136 21.2706 22.3094L21.1019 24.262C22.1226 23.4589 22.902 23.0576 23.4402 23.0582C23.7214 23.0582 23.8791 23.1682 23.9134 23.3883C23.9477 23.6083 23.8605 23.9294 23.6519 24.3514H21.6797L21.2217 24.9339H25.5178C25.5701 24.8579 25.6233 24.7803 25.6747 24.7026Z" fill="#4D4D4D"/>
<path d="M19.7134 26.846H21.759C21.379 27.2265 20.9541 27.5593 20.4936 27.837C20.0814 28.0767 19.7193 28.1966 19.4072 28.1966C18.8634 28.1966 18.7132 27.7954 18.9567 26.9928L16.0499 28.9454C15.8958 29.6308 15.936 30.1446 16.1705 30.4868C16.405 30.829 16.7987 31.0003 17.3515 31.0009C18.0668 31.0009 18.9255 30.7268 19.9276 30.1787C20.9298 29.6306 21.942 28.8767 22.9644 27.9172C23.5829 27.3372 24.1597 26.714 24.6902 26.0525H20.3401L19.7134 26.846Z" fill="#4D4D4D"/>
<path d="M21.004 25.2091L20.5569 25.7755H24.9037C25.0471 25.5898 25.188 25.4016 25.3255 25.2091H21.004Z" fill="#4D4D4D"/>
<path d="M30.8042 25.2091H26.1344L25.6882 25.7756H30.2956L30.3833 25.5687L30.8042 25.2091Z" fill="#4D4D4D"/>
<path d="M21.7607 30.7654H23.9252L26.8523 27.0511H27.5583L25.878 30.7654H28.1707L30.1775 26.0524H25.4706L21.7607 30.7654Z" fill="#4D4D4D"/>
<path d="M36.3243 20.4886H33.9211L29.5499 24.3202H28.9999L32.0138 20.4886H29.8493L26.352 24.9322H31.1273L36.3243 20.4886Z" fill="#4D4D4D"/>
<path d="M31.792 26.4053C31.1959 27.3057 30.8036 28.1035 30.6153 28.7985C30.4269 29.4935 30.455 30.0343 30.6996 30.421C30.942 30.807 31.3902 31.0003 32.0442 31.0009C32.6679 31.0009 33.3202 30.8442 34.0012 30.5307C34.6822 30.2172 35.4524 29.6936 36.3116 28.9597L36.3302 27.0072C35.3956 27.8001 34.6561 28.1966 34.1117 28.1966C33.7141 28.1966 33.5173 28.0132 33.5212 27.6462C33.5252 27.2793 33.7268 26.7922 34.126 26.185L34.2163 26.0525H32.029C31.9503 26.169 31.8713 26.2866 31.792 26.4053Z" fill="#4D4D4D"/>
<path d="M35.415 24.5625C35.8159 24.1373 36.2694 23.7651 36.7646 23.455C37.2021 23.1899 37.5893 23.0576 37.9262 23.0582C38.4947 23.0582 38.657 23.4595 38.4129 24.262L41.2649 22.3094C41.4668 21.6538 41.4477 21.1473 41.2075 20.7899C40.9674 20.4326 40.5386 20.2539 39.9211 20.2539C39.1383 20.2539 38.2667 20.5159 37.3062 21.0398C36.3457 21.5638 35.3843 22.2903 34.4221 23.2194C33.8687 23.7569 33.35 24.3289 32.8692 24.9322H35.0759C35.1866 24.805 35.2997 24.6818 35.415 24.5625Z" fill="#4D4D4D"/>
<path d="M32.6482 25.2091C32.5054 25.3943 32.3648 25.5831 32.2264 25.7755H34.4019C34.5436 25.5788 34.6896 25.3906 34.838 25.2091H32.6482Z" fill="#4D4D4D"/>
<path d="M39.5888 30.7654H41.717L45.4269 26.0524H43.2852L39.5888 30.7654Z" fill="#4D4D4D"/>
<path d="M35.5078 30.7654H37.636L41.3315 26.0524H39.2176L35.5078 30.7654Z" fill="#4D4D4D"/>
<path d="M43.588 23.1755H45.5417L44.1642 24.9322H46.3084L49.8057 20.4886H43.5973L40.1 24.9322H42.2105L43.588 23.1755Z" fill="#4D4D4D"/>
<path d="M43.9465 25.2091L43.5028 25.7756H45.6445L46.0908 25.2091H43.9465Z" fill="#4D4D4D"/>
<path d="M39.8815 25.2091L39.4361 25.7756H41.5492L41.9929 25.2091H39.8815Z" fill="#4D4D4D"/>
<path d="M42.8541 30.7654H48.1912L50.2519 28.1519H47.033L48.0925 26.8012H50.8163L51.4059 26.0524H46.564L42.8541 30.7654Z" fill="#4D4D4D"/>
<path d="M47.2279 25.2091L46.7816 25.7756H51.6244L52.0698 25.2091H47.2279Z" fill="#4D4D4D"/>
<path d="M52.7809 24.3059H50.0664L51.0103 23.1021H54.101L56.1618 20.4886H50.9428L47.4455 24.9322H52.2883L52.7809 24.3059Z" fill="#4D4D4D"/>
<path d="M57.0989 25.2091C56.775 25.4488 56.4632 25.5687 56.1634 25.5687H55.2735L55.5569 25.2091H53.4L52.9538 25.7755H58.9024C59.0784 25.5938 59.2505 25.405 59.4186 25.2091H57.0989Z" fill="#4D4D4D"/>
<path d="M57.1706 23.1612H57.8952C58.4334 23.1612 58.4725 23.5084 58.0125 24.2028C57.8418 24.466 57.6438 24.7105 57.422 24.9322H59.6498C59.9146 24.6047 60.1677 24.2588 60.409 23.8947C61.122 22.8187 61.4409 21.9819 61.3655 21.3842C61.2902 20.7865 60.8245 20.4883 59.9686 20.4894H57.115L53.6177 24.9322H55.7754L57.1706 23.1612Z" fill="#4D4D4D"/>
<path d="M49.0263 30.767H51.1908L53.174 28.2421H54.2841C54.9319 28.2421 55.6219 28.0612 56.3541 27.6993C57.1412 27.2984 57.8651 26.7839 58.5026 26.1723C58.5439 26.1334 58.5869 26.0938 58.6249 26.0541H52.7362L49.0263 30.767Z" fill="#4D4D4D"/>
<path d="M57.115 30.7654H59.2432L62.9396 26.0524H60.8113L57.115 30.7654Z" fill="#4D4D4D"/>
<path d="M61.4726 25.2091L61.0289 25.7756H63.1563L63.6009 25.2091H61.4726Z" fill="#4D4D4D"/>
<path d="M65.1952 23.1755H67.1033L69.2121 20.4886H63.3242L61.2154 23.1755H63.0678L61.6903 24.9322H63.8177L65.1952 23.1755Z" fill="#4D4D4D"/>
<path d="M66.8679 25.2091L66.2673 25.7756H68.3483L68.9278 25.2091H66.8679Z" fill="#4D4D4D"/>
<path d="M70.3154 23.8509L69.7275 24.9322H71.7157L73.9992 20.4886H71.8718L67.1615 24.9322H69.2104L70.3154 23.8509Z" fill="#4D4D4D"/>
<path d="M68.8865 26.4787H67.6305L68.0657 26.0524H65.9738L60.9767 30.7654H63.2601L65.0881 28.9741H67.5368L66.5617 30.7654H68.717L71.1396 26.0524H69.1185L68.8865 26.4787Z" fill="#4D4D4D"/>
<path d="M69.5773 25.2091L69.2686 25.7756H71.2821L71.5732 25.2091H69.5773Z" fill="#4D4D4D"/>
<path d="M5.00721 24.9323H2.79377C2.72123 25.0234 2.64784 25.1154 2.57614 25.2091H4.77355C4.85031 25.1154 4.92792 25.0268 5.00721 24.9323Z" fill="white"/>
<path d="M7.73518 25.0547C7.7006 25.107 7.66348 25.1576 7.62805 25.2091H9.80943C9.8727 25.118 9.93512 25.0251 9.99754 24.9323H7.81026C7.78411 24.9728 7.75964 25.0124 7.73518 25.0547Z" fill="white"/>
<path d="M14.1132 25.2091L14.33 24.9323H12.2026L11.9858 25.2091H14.1132Z" fill="white"/>
<path d="M25.3254 25.2091C25.3904 25.118 25.4536 25.0251 25.5178 24.9323H21.2216L21.004 25.2091H25.3254Z" fill="white"/>
<path d="M30.8042 25.2091L31.1273 24.9323H26.352L26.1344 25.2091H30.8042Z" fill="white"/>
<path d="M34.8397 25.2091C34.9173 25.1146 34.9952 25.0223 35.0734 24.9323H32.8667C32.7933 25.0234 32.7199 25.1154 32.6482 25.2091H34.8397Z" fill="white"/>
<path d="M41.9928 25.2091L42.2105 24.9323H40.0999L39.8815 25.2091H41.9928Z" fill="white"/>
<path d="M43.9465 25.2091H46.0908L46.3084 24.9323H44.1642L43.9465 25.2091Z" fill="white"/>
<path d="M52.0698 25.2091L52.2882 24.9323H47.4455L47.2279 25.2091H52.0698Z" fill="white"/>
<path d="M55.5578 25.2091L55.7754 24.9323H53.6176L53.4 25.2091H55.5578Z" fill="white"/>
<path d="M57.0989 25.2091H59.4187C59.4963 25.118 59.573 25.026 59.6481 24.9323H57.4195C57.3189 25.0316 57.2118 25.1241 57.0989 25.2091Z" fill="white"/>
<path d="M63.6009 25.2091L63.8177 24.9323H61.6903L61.4727 25.2091H63.6009Z" fill="white"/>
<path d="M69.5774 25.2091H71.5732L71.7157 24.9323H69.7275L69.5774 25.2091Z" fill="white"/>
<path d="M68.9278 25.2091L69.2104 24.9323H67.1614L66.8679 25.2091H68.9278Z" fill="white"/>
<path d="M7.21306 25.7755C7.14052 25.8692 7.06629 25.9613 6.99121 26.0524H9.18946C9.25948 25.9613 9.33033 25.8692 9.3995 25.7755H7.21306Z" fill="white"/>
<path d="M4.33325 25.7755H2.15609C2.09029 25.8676 2.0245 25.9587 1.96039 26.0524H4.14093C4.20419 25.9596 4.26746 25.8659 4.33325 25.7755Z" fill="white"/>
<path d="M11.5413 25.7755L11.3245 26.0524H13.4519L13.6686 25.7755H11.5413Z" fill="white"/>
<path d="M20.557 25.7755L20.3393 26.0524H24.6903C24.7637 25.9613 24.8354 25.8684 24.9062 25.7755H20.557Z" fill="white"/>
<path d="M25.6882 25.7755L25.4706 26.0524H30.1775L30.2956 25.7755H25.6882Z" fill="white"/>
<path d="M32.2281 25.7755C32.1623 25.8676 32.0965 25.9587 32.0324 26.0524H34.2104C34.2745 25.9587 34.3386 25.8659 34.4036 25.7755H32.2281Z" fill="white"/>
<path d="M39.4361 25.7755L39.2177 26.0524H41.3316L41.5492 25.7755H39.4361Z" fill="white"/>
<path d="M43.5028 25.7755L43.2852 26.0524H45.4269L45.6446 25.7755H43.5028Z" fill="white"/>
<path d="M46.7816 25.7755L46.564 26.0524H51.4059L51.6244 25.7755H46.7816Z" fill="white"/>
<path d="M58.9024 25.7755H52.9538L52.7361 26.0524H58.6249C58.721 25.9624 58.8135 25.8701 58.9024 25.7755Z" fill="white"/>
<path d="M61.0289 25.7755L60.8113 26.0524H62.9395L63.1563 25.7755H61.0289Z" fill="white"/>
<path d="M68.3483 25.7755H66.2673L65.9738 26.0524H68.0657L68.3483 25.7755Z" fill="white"/>
<path d="M69.1185 26.0524H71.1396L71.2821 25.7755H69.2686L69.1185 26.0524Z" fill="white"/>
<path d="M18.2718 20.4328C17.9909 20.2751 17.7456 20.0612 17.5509 19.8044C17.3563 19.5476 17.2166 19.2535 17.1406 18.9403C16.982 18.301 17.0532 17.5672 17.354 16.7388C17.7523 15.6416 18.3762 14.6402 19.1853 13.7994C19.9929 12.9487 20.9611 12.267 22.034 11.7937C23.0817 11.3236 24.2168 11.0803 25.3651 11.0795C26.3284 11.0795 27.1073 11.2574 27.7017 11.613C27.9825 11.7707 28.2279 11.9847 28.4225 12.2414C28.6171 12.4982 28.7568 12.7923 28.8328 13.1055C28.9914 13.7448 28.9203 14.4787 28.6194 15.3071C28.2206 16.4035 27.5968 17.4042 26.7881 18.2447C25.9806 19.0954 25.0123 19.7771 23.9395 20.2505C22.8921 20.721 21.7573 20.9649 20.6092 20.9663C19.6453 20.9663 18.8662 20.7885 18.2718 20.4328ZM23.2748 17.9949C23.7518 17.7265 24.1728 17.3689 24.5148 16.9414C24.8681 16.5093 25.1461 16.0207 25.3372 15.4962C25.5403 14.9379 25.5383 14.4922 25.3313 14.159C25.1244 13.8259 24.7327 13.6593 24.1563 13.6593C23.6443 13.662 23.1418 13.7976 22.6978 14.0527C22.2208 14.321 21.7998 14.6787 21.4578 15.1062C21.1045 15.5382 20.8265 16.0268 20.6354 16.5514C20.4318 17.1096 20.4338 17.5553 20.6413 17.8885C20.8488 18.2217 21.2405 18.3882 21.8163 18.3882C22.3283 18.3854 22.8308 18.2499 23.2748 17.9949V17.9949Z" fill="#5170B3"/>
<path d="M54.6518 20.3037C54.3712 20.1458 54.126 19.9318 53.9314 19.675C53.7368 19.4183 53.597 19.1243 53.5207 18.8112C53.3643 18.1714 53.4358 17.4375 53.7349 16.6097C54.1327 15.5129 54.7564 14.5121 55.5654 13.672C56.3729 12.8213 57.3412 12.1396 58.414 11.6663C59.4615 11.1953 60.5967 10.9513 61.7451 10.9504C62.7079 10.9504 63.4868 11.1283 64.0817 11.4839C64.3624 11.6417 64.6076 11.8557 64.8021 12.1125C64.9966 12.3692 65.1361 12.6633 65.2121 12.9764C65.3707 13.6157 65.2995 14.3496 64.9987 15.178C64.5998 16.2744 63.976 17.2751 63.1673 18.1156C62.3594 18.9659 61.3913 19.6475 60.3187 20.1214C59.2714 20.592 58.1365 20.8359 56.9884 20.8372C56.0251 20.8372 55.2463 20.6594 54.6518 20.3037ZM59.6549 17.8658C60.1315 17.5969 60.5524 17.2393 60.8949 16.8123C61.2495 16.3804 61.529 15.8918 61.7215 15.3671C61.9251 14.8082 61.9231 14.3625 61.7156 14.0299C61.5081 13.6973 61.1164 13.5307 60.5406 13.5302C60.0287 13.532 59.5261 13.667 59.0821 13.9219C58.6048 14.1901 58.1835 14.5478 57.8413 14.9754C57.4878 15.4073 57.2097 15.896 57.0188 16.4206C56.8152 16.9788 56.8175 17.4246 57.0256 17.7577C57.2336 18.0909 57.625 18.2575 58.1998 18.2575C58.7104 18.2546 59.2117 18.1197 59.6549 17.8658V17.8658Z" fill="#5170B3"/>
</g>
<defs>
<clipPath id="clip0">
<rect width="74" height="31" fill="white"/>
</clipPath>
</defs>
</svg>
