<svg width="25" height="21" viewBox="0 0 25 21" fill="none" xmlns="http://www.w3.org/2000/svg">
<path d="M3.57102 10.9527C3.17873 10.5604 2.64665 10.34 2.09186 10.34C1.53706 10.34 1.00499 10.5604 0.612691 10.9527C0.220392 11.345 0 11.877 0 12.4318C0 12.9866 0.220392 13.5187 0.612691 13.911L6.86269 20.161C7.05736 20.3541 7.28822 20.5068 7.54205 20.6105C7.79588 20.7142 8.06768 20.7668 8.34186 20.7652C8.62706 20.7561 8.90737 20.6886 9.1654 20.5667C9.42342 20.4449 9.65367 20.2713 9.84186 20.0568L24.4252 3.39016C24.7619 2.9721 24.9243 2.44018 24.8784 1.90533C24.8325 1.37048 24.582 0.873981 24.179 0.519348C23.776 0.164715 23.2517 -0.0206745 22.7153 0.00183385C22.179 0.0243422 21.6721 0.253012 21.3002 0.640163L8.34186 15.6402L3.57102 10.9527Z" fill="#2F80ED"/>
</svg>
